<svg width="56" height="30" viewBox="0 0 56 30" fill="none" xmlns="http://www.w3.org/2000/svg">
<rect width="56" height="30" rx="15" fill="#F2F2F2"/>
<path d="M18.0973 8.04C15.8413 8.04 14.1453 9.448 14.1453 11.432C14.1453 13.4 15.8413 14.808 18.0973 14.808C20.3533 14.808 22.0493 13.4 22.0493 11.432C22.0493 9.448 20.3533 8.04 18.0973 8.04ZM18.0973 9.768C19.1853 9.768 19.9853 10.376 19.9853 11.432C19.9853 12.488 19.1853 13.096 18.0973 13.096C17.0093 13.096 16.1933 12.488 16.1933 11.432C16.1933 10.376 17.0093 9.768 18.0973 9.768ZM24.0973 7.608V15.016H26.2413V7.608H24.0973ZM16.3533 15.624V17.272H24.1293V18.152H16.3853V21.48H18.4653V19.688H26.2413V15.624H16.3533ZM16.3853 20.616V22.264H26.6093V20.616H16.3853ZM31.888 8.408V9.72C31.888 11.736 30.88 13.72 28.4 14.552L29.536 16.232C32.352 15.256 33.632 12.664 33.632 9.72V8.408H31.888ZM32.32 8.408V9.928C32.32 12.6 33.584 14.904 36.256 15.8L37.36 14.152C35.04 13.432 34.048 11.704 34.048 9.928V8.408H32.32ZM38.176 7.608V16.36H40.304V7.608H38.176ZM39.712 11.032V12.792H42.272V11.032H39.712ZM35.472 16.696C32.384 16.696 30.448 17.768 30.448 19.56C30.448 21.368 32.384 22.424 35.472 22.424C38.544 22.424 40.48 21.368 40.48 19.56C40.48 17.768 38.544 16.696 35.472 16.696ZM35.472 18.344C37.36 18.344 38.368 18.744 38.368 19.56C38.368 20.392 37.36 20.776 35.472 20.776C33.584 20.776 32.56 20.392 32.56 19.56C32.56 18.744 33.584 18.344 35.472 18.344Z" fill="#3E4048"/>
</svg>
