<svg width="56" height="30" viewBox="0 0 56 30" fill="none" xmlns="http://www.w3.org/2000/svg">
<rect width="56" height="30" rx="15" fill="#74757B"/>
<path d="M24.5773 7.768V22.264H25.9053V7.768H24.5773ZM14.8973 9V18.776H21.7133V9H20.3853V12.824H16.2093V9H14.8973ZM16.2093 13.88H20.3853V17.688H16.2093V13.88ZM29.552 8.584V14.504H36.288V8.584H29.552ZM35.008 9.64V13.432H30.832V9.64H35.008ZM39.312 7.784V15.224H40.64V7.784H39.312ZM31.28 15.944V17H39.328V18.456H31.312V21.48H32.608V19.448H40.64V15.944H31.28ZM31.312 21.032V22.088H41.136V21.032H31.312Z" fill="#3E4048"/>
</svg>
