<svg width="56" height="30" viewBox="0 0 56 30" fill="none" xmlns="http://www.w3.org/2000/svg">
<rect width="56" height="30" rx="15" fill="#74757B"/>
<path d="M24.6093 7.784V22.248H25.9373V7.784H24.6093ZM20.3693 9.336V9.56C20.3693 13.4 18.4333 16.472 14.2573 18.488L14.9613 19.56C19.7933 17.192 21.6813 13.528 21.6813 9.336H20.3693ZM14.9133 9.336V10.424H20.9453V9.336H14.9133ZM35.904 11.512V12.6H39.84V11.512H35.904ZM31.04 17.128V18.184H39.36V22.264H40.688V17.128H31.04ZM39.36 7.784V16.312H40.688V7.784H39.36ZM32.736 8.584C30.592 8.584 29.008 10.024 29.008 12.072C29.008 14.12 30.592 15.544 32.736 15.544C34.864 15.544 36.464 14.12 36.464 12.072C36.464 10.024 34.864 8.584 32.736 8.584ZM32.736 9.72C34.128 9.72 35.184 10.696 35.184 12.072C35.184 13.448 34.128 14.408 32.736 14.408C31.328 14.408 30.288 13.448 30.288 12.072C30.288 10.696 31.328 9.72 32.736 9.72Z" fill="#3E4048"/>
</svg>
