<svg width="56" height="30" viewBox="0 0 56 30" fill="none" xmlns="http://www.w3.org/2000/svg">
<rect width="56" height="30" rx="15" fill="#74757B"/>
<path d="M21.7453 11.768V12.856H25.3933V11.768H21.7453ZM24.6413 7.8V18.392H25.9693V7.8H24.6413ZM16.7373 20.84V21.928H26.3693V20.84H16.7373ZM16.7373 17.464V21.4H18.0653V17.464H16.7373ZM17.7613 9.592V10.76C17.7613 12.808 16.2733 14.728 14.1133 15.496L14.8013 16.552C17.2173 15.656 18.8493 13.384 18.8493 10.76V9.592H17.7613ZM18.0173 9.592V10.744C18.0173 13.192 19.5693 15.368 21.9213 16.216L22.5933 15.176C20.4973 14.44 19.0893 12.616 19.0893 10.744V9.592H18.0173ZM14.5293 8.968V10.04H22.2573V8.968H14.5293ZM34.688 13.496V14.584H37.424V13.496H34.688ZM31.744 11.48V12.232C31.744 14.6 30.624 17.144 28.672 18.28L29.456 19.288C31.568 18.024 32.768 15.112 32.768 12.232V11.48H31.744ZM31.984 11.48V12.232C31.984 15.048 33.232 17.784 35.36 18.968L36.112 17.976C34.16 16.92 33.008 14.536 33.008 12.232V11.48H31.984ZM29.072 10.44V11.544H35.68V10.44H29.072ZM31.744 8.296V11.288H33.024V8.296H31.744ZM39.792 7.784V22.248H41.072V7.784H39.792ZM36.896 8.12V21.512H38.144V8.12H36.896Z" fill="#3E4048"/>
</svg>
