<svg width="56" height="30" viewBox="0 0 56 30" fill="none" xmlns="http://www.w3.org/2000/svg">
<rect width="56" height="30" rx="15" fill="#E75A6B"/>
<path d="M24.0813 7.592V22.456H26.2253V7.592H24.0813ZM14.6573 8.776V19H21.9373V8.776H19.8253V12.376H16.7693V8.776H14.6573ZM16.7693 14.024H19.8253V17.288H16.7693V14.024ZM29.392 8.344V14.616H36.576V8.344H29.392ZM34.496 10.008V12.952H31.472V10.008H34.496ZM38.816 7.608V15.08H40.96V7.608H38.816ZM31.072 15.72V17.352H38.848V18.232H31.088V21.256H33.184V19.752H40.96V15.72H31.072ZM31.088 20.68V22.328H41.328V20.68H31.088Z" fill="white"/>
</svg>
