<svg width="56" height="30" viewBox="0 0 56 30" fill="none" xmlns="http://www.w3.org/2000/svg">
<rect width="56" height="30" rx="15" fill="#74757B"/>
<path d="M18.1293 8.312C15.9853 8.312 14.4013 9.624 14.4013 11.528C14.4013 13.416 15.9853 14.728 18.1293 14.728C20.2893 14.728 21.8733 13.416 21.8733 11.528C21.8733 9.624 20.2893 8.312 18.1293 8.312ZM18.1293 9.4C19.5373 9.4 20.5773 10.28 20.5773 11.528C20.5773 12.776 19.5373 13.64 18.1293 13.64C16.7373 13.64 15.6813 12.776 15.6813 11.528C15.6813 10.28 16.7373 9.4 18.1293 9.4ZM24.5933 7.784V15.192H25.9373V7.784H24.5933ZM16.5773 15.896V16.968H24.6253V18.424H16.6093V21.592H17.9053V19.416H25.9373V15.896H16.5773ZM16.6093 21V22.056H26.4173V21H16.6093ZM32.304 8.536V10.008C32.304 12.216 30.896 14.168 28.72 14.968L29.424 16.04C31.84 15.096 33.408 12.792 33.408 10.008V8.536H32.304ZM32.544 8.536V10.104C32.544 12.616 34.128 14.76 36.448 15.624L37.152 14.584C35.072 13.864 33.632 12.056 33.632 10.104V8.536H32.544ZM38.688 7.784V16.552H40.016V7.784H38.688ZM39.648 11.512V12.632H42.16V11.512H39.648ZM35.408 16.952C32.448 16.952 30.656 17.928 30.656 19.592C30.656 21.256 32.448 22.216 35.408 22.216C38.368 22.216 40.16 21.256 40.16 19.592C40.16 17.928 38.368 16.952 35.408 16.952ZM35.408 18.008C37.552 18.008 38.864 18.584 38.864 19.592C38.864 20.6 37.552 21.176 35.408 21.176C33.264 21.176 31.952 20.6 31.952 19.592C31.952 18.584 33.264 18.008 35.408 18.008Z" fill="#3E4048"/>
</svg>
