<svg width="68" height="30" viewBox="0 0 68 30" fill="none" xmlns="http://www.w3.org/2000/svg">
<rect width="68" height="30" rx="6" fill="#E0E1EB"/>
<path d="M12.4936 15.128V17.872H13.6696V15.128H12.4936ZM12.4936 10.676V10.956C12.4936 12.664 11.2056 14.078 9.32964 14.638L9.86164 15.548C11.9896 14.876 13.4316 13.168 13.4316 10.956V10.676H12.4936ZM12.7176 10.676V10.956C12.7176 13.098 14.1876 14.778 16.3156 15.408L16.8476 14.512C14.9856 13.966 13.6556 12.594 13.6556 10.956V10.676H12.7176ZM9.62364 10.088V11.026H16.5816V10.088H9.62364ZM12.4936 8.52V10.494H13.6696V8.52H12.4936ZM18.0236 8.422V21.106H19.1856V8.422H18.0236ZM9.10564 18.502C11.3596 18.488 14.4536 18.474 17.2956 17.942L17.1976 17.088C14.4396 17.508 11.2476 17.522 8.93764 17.522L9.10564 18.502ZM30.9585 8.45V17.718H32.1345V8.45H30.9585ZM24.0005 19.86V20.812H32.5125V19.86H24.0005ZM24.0005 16.864V20.308H25.1485V16.864H24.0005ZM25.0505 9.136V10.424C25.0505 12.384 23.7905 14.232 21.8865 14.974L22.4885 15.912C24.6165 15.044 26.0165 12.888 26.0165 10.424V9.136H25.0505ZM25.2605 9.136V10.424C25.2605 12.832 26.6605 14.862 28.7605 15.674L29.3765 14.736C27.4865 14.05 26.2125 12.328 26.2125 10.424V9.136H25.2605ZM39.7635 8.758V9.374C39.7635 11.068 37.5515 12.552 35.3115 12.888L35.7735 13.812C38.3355 13.364 40.7575 11.67 40.7575 9.374V8.758H39.7635ZM39.9455 8.758V9.374C39.9455 11.614 42.3815 13.35 44.9435 13.784L45.3775 12.874C43.1795 12.538 40.9395 11.026 40.9395 9.374V8.758H39.9455ZM34.6255 14.876V15.828H46.0915V14.876H34.6255ZM39.8615 15.464V18.376H41.0235V15.464H39.8615ZM36.0815 19.86V20.812H44.8175V19.86H36.0815ZM36.0815 17.158V20.168H37.2295V17.158H36.0815Z" fill="#3E4048"/>
<path d="M56 19L52.5359 13L59.4641 13L56 19Z" fill="#3E4048"/>
</svg>
