<svg width="96" height="56" viewBox="0 0 96 56" fill="none" xmlns="http://www.w3.org/2000/svg">
<rect width="96" height="56" rx="6" fill="white"/>
<path d="M23.5935 28.016V30.544H24.9215V28.016H23.5935ZM17.7215 27.552V28.624H30.7935V27.552H17.7215ZM24.2495 30.144C21.1455 30.144 19.2895 31.056 19.2895 32.688C19.2895 34.304 21.1455 35.216 24.2495 35.216C27.3535 35.216 29.2095 34.304 29.2095 32.688C29.2095 31.056 27.3535 30.144 24.2495 30.144ZM24.2495 31.168C26.5215 31.168 27.8655 31.712 27.8655 32.688C27.8655 33.648 26.5215 34.192 24.2495 34.192C21.9935 34.192 20.6335 33.648 20.6335 32.688C20.6335 31.712 21.9935 31.168 24.2495 31.168ZM23.4015 21.968V22.4C23.4015 24.048 21.0495 25.344 18.4575 25.616L18.9375 26.672C21.9295 26.304 24.5855 24.736 24.5855 22.4V21.968H23.4015ZM23.9615 21.968V22.4C23.9615 24.736 26.6015 26.304 29.5935 26.672L30.0735 25.616C27.4815 25.344 25.1295 24.048 25.1295 22.4V21.968H23.9615ZM18.9215 21.44V22.512H29.6255V21.44H18.9215ZM32.4403 28.24V29.328H45.5123V28.24H32.4403ZM38.3283 26.08V28.576H39.6403V26.08H38.3283ZM33.8963 30.736V31.824H42.5683V35.248H43.8963V30.736H33.8963ZM34.1843 21.12V26.528H43.8163V21.12H42.4883V22.752H35.4963V21.12H34.1843ZM35.4963 23.792H42.4883V25.472H35.4963V23.792ZM54.201 27.568V29.424H55.529V27.568H54.201ZM60.297 20.8V30.496H61.625V20.8H60.297ZM61.065 25.168V26.272H63.737V25.168H61.065ZM50.505 30.08C53.033 30.064 56.457 30.048 59.545 29.504L59.433 28.56C56.441 28.992 52.921 28.992 50.329 28.992L50.505 30.08ZM52.121 31.216V32.272H60.297V35.248H61.625V31.216H52.121ZM50.697 22.096V23.088H59.001V22.096H50.697ZM54.857 23.648C52.809 23.648 51.481 24.464 51.481 25.792C51.481 27.12 52.809 27.936 54.857 27.936C56.889 27.936 58.217 27.12 58.217 25.792C58.217 24.464 56.889 23.648 54.857 23.648ZM54.857 24.56C56.137 24.56 56.969 25.024 56.969 25.792C56.969 26.528 56.137 27.008 54.857 27.008C53.561 27.008 52.729 26.528 52.729 25.792C52.729 25.024 53.561 24.56 54.857 24.56ZM54.201 20.672V22.576H55.529V20.672H54.201ZM75.6558 20.8V31.36H76.9998V20.8H75.6558ZM67.7038 33.84V34.928H77.4318V33.84H67.7038ZM67.7038 30.272V34.208H69.0158V30.272H67.7038ZM69.2398 21.792C67.0798 21.792 65.4638 23.264 65.4638 25.36C65.4638 27.44 67.0798 28.928 69.2398 28.928C71.3998 28.928 72.9998 27.44 72.9998 25.36C72.9998 23.264 71.3998 21.792 69.2398 21.792ZM69.2398 22.944C70.6478 22.944 71.7198 23.936 71.7198 25.36C71.7198 26.768 70.6478 27.76 69.2398 27.76C67.8318 27.76 66.7598 26.768 66.7598 25.36C66.7598 23.936 67.8318 22.944 69.2398 22.944Z" fill="#3E4048"/>
</svg>
