<svg width="47" height="26" viewBox="0 0 47 26" fill="none" xmlns="http://www.w3.org/2000/svg">
<rect x="0.255859" y="0.31543" width="46.6297" height="24.9915" rx="6.65528" fill="#7E73FF"/>
<path d="M19.7379 6.6569V19.0224H21.5215V6.6569H19.7379ZM21.1222 11.2224V12.6733H23.3051V11.2224H21.1222ZM12.3372 14.59V16.0542H13.3755C15.5185 16.0542 17.2089 16.0009 19.0724 15.6682L18.8993 14.204C17.0891 14.5234 15.4519 14.59 13.3755 14.59H12.3372ZM12.3372 7.80161V15.2955H14.0942V9.22584H18.0874V7.80161H12.3372ZM29.6799 6.89649C26.9645 6.89649 25.2208 7.81492 25.2208 9.3057C25.2208 10.7965 26.9645 11.7016 29.6799 11.7016C32.3952 11.7016 34.1389 10.7965 34.1389 9.3057C34.1389 7.81492 32.3952 6.89649 29.6799 6.89649ZM29.6799 8.26748C31.357 8.26748 32.3154 8.60024 32.3154 9.3057C32.3154 9.99785 31.357 10.3439 29.6799 10.3439C27.9894 10.3439 27.0444 9.99785 27.0444 9.3057C27.0444 8.60024 27.9894 8.26748 29.6799 8.26748ZM25.3939 14.6566V18.8627H33.9126V14.6566H25.3939ZM32.1823 16.0542V17.4651H27.1375V16.0542H32.1823ZM24.1027 12.4071V13.8047H35.2437V12.4071H24.1027Z" fill="white"/>
</svg>
