<svg width="56" height="30" viewBox="0 0 56 30" fill="none" xmlns="http://www.w3.org/2000/svg">
<rect width="56" height="30" rx="15" fill="#7E73FF"/>
<path d="M21.8573 11.432V13.144H25.3133V11.432H21.8573ZM24.1933 7.624V18.424H26.3213V7.624H24.1933ZM16.5453 20.472V22.168H26.6573V20.472H16.5453ZM16.5453 17.512V21.48H18.6733V17.512H16.5453ZM17.3453 9.56V10.488C17.3453 12.36 16.2893 14.296 13.8413 15.096L14.9133 16.792C17.7613 15.848 19.0733 13.272 19.0733 10.488V9.56H17.3453ZM17.7933 9.56V10.488C17.7933 13.128 19.0573 15.592 21.8093 16.504L22.8493 14.84C20.5133 14.056 19.5053 12.216 19.5053 10.488V9.56H17.7933ZM14.4173 8.616V10.296H22.3853V8.616H14.4173ZM34.672 13.224V14.936H37.024V13.224H34.672ZM31.232 11.72V12.104C31.232 14.376 30.48 16.808 28.368 18.04L29.568 19.64C31.936 18.28 32.832 15.192 32.832 12.104V11.72H31.232ZM31.648 11.72V12.104C31.648 15.144 32.56 18.04 34.96 19.288L36.112 17.72C34.016 16.6 33.248 14.344 33.248 12.104V11.72H31.648ZM28.928 10.088V11.8H35.536V10.088H28.928ZM31.232 8.104V11.48H33.248V8.104H31.232ZM39.344 7.608V22.424H41.36V7.608H39.344ZM36.352 7.848V21.752H38.336V7.848H36.352Z" fill="white"/>
</svg>
