<svg width="96" height="56" viewBox="0 0 96 56" fill="none" xmlns="http://www.w3.org/2000/svg">
<rect width="96" height="56" rx="6" fill="white"/>
<path d="M17.7215 28.176V29.264H30.8255V28.176H17.7215ZM23.7055 28.848V32.176H25.0335V28.848H23.7055ZM19.4015 21.456V26.544H29.1295V21.456H19.4015ZM27.8175 22.528V25.472H20.6975V22.528H27.8175ZM19.3855 33.84V34.928H29.3695V33.84H19.3855ZM19.3855 30.784V34.224H20.6975V30.784H19.3855ZM36.0243 22.848V25.2C36.0243 27.648 34.2803 30.4 32.2163 31.408L32.9843 32.464C35.2403 31.312 37.0803 28.208 37.0803 25.2V22.848H36.0243ZM36.2643 22.848V25.2C36.2643 28.064 38.0083 30.976 40.2963 32.112L41.0483 31.056C38.9523 30.064 37.3203 27.488 37.3203 25.2V22.848H36.2643ZM32.7283 22.256V23.376H40.5203V22.256H32.7283ZM42.2323 20.784V35.248H43.5763V20.784H42.2323ZM43.2563 26.624V27.744H45.9443V26.624H43.2563ZM60.937 20.8V31.36H62.281V20.8H60.937ZM52.985 33.84V34.928H62.713V33.84H52.985ZM52.985 30.272V34.208H54.297V30.272H52.985ZM54.521 21.792C52.361 21.792 50.745 23.264 50.745 25.36C50.745 27.44 52.361 28.928 54.521 28.928C56.681 28.928 58.281 27.44 58.281 25.36C58.281 23.264 56.681 21.792 54.521 21.792ZM54.521 22.944C55.929 22.944 57.001 23.936 57.001 25.36C57.001 26.768 55.929 27.76 54.521 27.76C53.113 27.76 52.041 26.768 52.041 25.36C52.041 23.936 53.113 22.944 54.521 22.944ZM65.1278 27.664V28.736H78.1998V27.664H65.1278ZM71.6558 29.984C68.5677 29.984 66.6957 30.944 66.6957 32.608C66.6957 34.272 68.5677 35.216 71.6558 35.216C74.7438 35.216 76.6158 34.272 76.6158 32.608C76.6158 30.944 74.7438 29.984 71.6558 29.984ZM71.6558 31.04C73.9278 31.04 75.2718 31.6 75.2718 32.608C75.2718 33.6 73.9278 34.176 71.6558 34.176C69.3998 34.176 68.0398 33.6 68.0398 32.608C68.0398 31.6 69.3998 31.04 71.6558 31.04ZM70.8078 22.096V22.528C70.8078 24.16 68.4557 25.456 65.8638 25.744L66.3438 26.784C69.3358 26.432 71.9918 24.848 71.9918 22.528V22.096H70.8078ZM71.3678 22.096V22.528C71.3678 24.848 74.0078 26.432 76.9998 26.784L77.4798 25.744C74.8878 25.456 72.5358 24.16 72.5358 22.528V22.096H71.3678ZM66.3278 21.52V22.592H77.0318V21.52H66.3278Z" fill="#3E4048"/>
</svg>
