<svg width="100" height="30" viewBox="0 0 100 30" fill="none" xmlns="http://www.w3.org/2000/svg">
<rect width="100" height="30" rx="15" fill="#50BF9F"/>
<path d="M24.1631 7.592V22.456H26.2751V7.592H24.1631ZM20.8031 12.808V14.52H24.7711V12.808H20.8031ZM14.3871 8.76V18.968H21.5071V8.76H19.4111V12.344H16.4991V8.76H14.3871ZM16.4991 13.992H19.4111V17.256H16.4991V13.992ZM38.7379 7.608V17.432H40.8659V7.608H38.7379ZM34.7539 16.552V16.856C34.7539 18.552 33.2659 20.248 30.0499 20.696L30.8659 22.376C34.5459 21.768 36.5619 19.608 36.5619 16.856V16.552H34.7539ZM35.1379 16.552V16.856C35.1379 19.624 37.1059 21.736 40.6899 22.36L41.5379 20.696C38.3859 20.216 36.9619 18.568 36.9619 16.856V16.552H35.1379ZM34.2899 8.552V9.4C34.2899 12.12 33.0259 14.168 28.8019 15.448L29.6019 17.112C34.6419 15.544 36.4659 12.728 36.4659 8.552H34.2899ZM29.5539 8.552V10.232H35.5379V8.552H29.5539ZM34.3859 11.464L28.8019 11.64L29.1059 13.288L34.3859 12.904V11.464ZM53.4886 7.592V22.456H55.6166V7.592H53.4886ZM44.0806 17.272V19H45.3926C48.0966 19 50.2726 18.92 52.6726 18.488L52.4646 16.776C50.1126 17.176 48.0166 17.272 45.3926 17.272H44.0806ZM44.0646 8.856V10.552H48.8806V12.904H44.0806V17.912H46.2406V14.584H51.0566V8.856H44.0646ZM63.5034 8.456V9.528C63.5034 11.656 61.6634 14.008 58.3194 14.584L59.2314 16.344C63.0714 15.592 65.3594 12.744 65.3594 9.528V8.456H63.5034ZM63.9354 8.456V9.528C63.9354 12.792 66.2074 15.592 70.0474 16.344L70.9594 14.584C67.5994 14.008 65.7754 11.704 65.7754 9.528V8.456H63.9354ZM58.0154 18.888V20.616H71.4234V18.888H58.0154ZM74.3021 15.24V16.904H84.7181V15.24H74.3021ZM72.7341 19V20.728H86.1421V19H72.7341ZM74.3021 8.68V15.704H76.4621V10.392H84.5901V8.68H74.3021ZM75.8061 11.944V13.592H84.2541V11.944H75.8061Z" fill="white"/>
</svg>
