<svg width="373" height="86" viewBox="0 0 373 86" fill="none" xmlns="http://www.w3.org/2000/svg">
<g filter="url(#filter0_d_547_11001)">
<path d="M162.829 39.512V41.208H165.837V39.512H162.829ZM162.749 43.208V44.904H165.773V43.208H162.749ZM167.853 35.608V50.424H169.885V35.608H167.853ZM164.797 35.928V49.768H166.781V35.928H164.797ZM161.453 37.352V37.784C161.453 41.368 160.253 43.832 156.909 45.864L158.109 47.352C162.237 44.92 163.501 41.56 163.501 37.352H161.453ZM157.757 37.352V39.048H162.173V37.352H157.757ZM179.867 39.192V40.92H182.683V39.192H179.867ZM182.107 35.608V44.408H184.235V35.608H182.107ZM179.211 44.728C176.075 44.728 174.139 45.8 174.139 47.592C174.139 49.4 176.075 50.44 179.211 50.44C182.347 50.44 184.283 49.4 184.283 47.592C184.283 45.8 182.347 44.728 179.211 44.728ZM179.211 46.344C181.147 46.344 182.171 46.744 182.171 47.592C182.171 48.424 181.147 48.824 179.211 48.824C177.291 48.824 176.267 48.424 176.267 47.592C176.267 46.744 177.291 46.344 179.211 46.344ZM175.259 37.096V38.024C175.259 39.928 174.203 41.896 171.755 42.728L172.843 44.408C175.675 43.448 176.987 40.856 176.987 38.024V37.096H175.259ZM175.707 37.096V38.024C175.707 40.664 176.971 43.128 179.723 44.04L180.763 42.36C178.427 41.576 177.419 39.768 177.419 38.024V37.096H175.707ZM172.331 36.504V38.2H180.299V36.504H172.331ZM193.054 36.376V37.72C193.054 39.64 192.03 41.528 189.566 42.312L190.638 44.008C193.502 43.064 194.782 40.568 194.782 37.72V36.376H193.054ZM193.486 36.376V37.912C193.486 40.584 194.734 42.936 197.486 43.816L198.526 42.152C196.19 41.416 195.198 39.688 195.198 37.912V36.376H193.486ZM199.262 35.608V44.552H201.39V35.608H199.262ZM200.798 39.208V40.968H203.358V39.208H200.798ZM191.502 45.176V46.888H199.262V50.424H201.39V45.176H191.502ZM215.149 35.608V50.424H217.165V35.608H215.149ZM210.269 40.664V42.392H212.717V40.664H210.269ZM212.157 35.848V49.752H214.141V35.848H212.157ZM207.069 38.024V39.544C207.069 42.072 206.317 44.728 204.141 46.088L205.405 47.656C207.757 46.184 208.669 42.872 208.669 39.544V38.024H207.069ZM207.549 38.024V39.544C207.549 42.808 208.413 45.912 210.765 47.304L212.013 45.752C209.869 44.504 209.133 42.008 209.133 39.544V38.024H207.549ZM204.701 37.096V38.808H211.309V37.096H204.701Z" fill="white"/>
<rect x="15.5" y="15.5" width="342" height="55" rx="11.5" stroke="#F2F2F2" shape-rendering="crispEdges"/>
</g>
<defs>
<filter id="filter0_d_547_11001" x="0" y="0" width="373" height="86" filterUnits="userSpaceOnUse" color-interpolation-filters="sRGB">
<feFlood flood-opacity="0" result="BackgroundImageFix"/>
<feColorMatrix in="SourceAlpha" type="matrix" values="0 0 0 0 0 0 0 0 0 0 0 0 0 0 0 0 0 0 127 0" result="hardAlpha"/>
<feOffset/>
<feGaussianBlur stdDeviation="7.5"/>
<feComposite in2="hardAlpha" operator="out"/>
<feColorMatrix type="matrix" values="0 0 0 0 0.270588 0 0 0 0 0.207843 0 0 0 0 0.513726 0 0 0 0.35 0"/>
<feBlend mode="normal" in2="BackgroundImageFix" result="effect1_dropShadow_547_11001"/>
<feBlend mode="normal" in="SourceGraphic" in2="effect1_dropShadow_547_11001" result="shape"/>
</filter>
</defs>
</svg>
