<svg width="56" height="30" viewBox="0 0 56 30" fill="none" xmlns="http://www.w3.org/2000/svg">
<rect width="56" height="30" rx="15" fill="#74757B"/>
<path d="M23.8573 7.768V22.248H25.2013V7.768H23.8573ZM24.8333 13.64V14.744H27.5053V13.64H24.8333ZM20.1613 9.336V9.544C20.1613 13.368 18.1613 16.456 14.1613 18.488L14.8973 19.512C19.5693 17.16 21.4573 13.448 21.4573 9.336H20.1613ZM14.8333 9.336V10.424H20.8493V9.336H14.8333ZM34.464 8.936V9.368C34.464 11.016 32.112 12.328 29.52 12.632L30 13.672C32.992 13.304 35.648 11.704 35.648 9.368V8.936H34.464ZM35.024 8.936V9.368C35.024 11.704 37.664 13.304 40.656 13.672L41.136 12.632C38.544 12.344 36.192 11.016 36.192 9.368V8.936H35.024ZM29.984 8.376V9.448H40.688V8.376H29.984ZM28.784 15.032V16.12H41.904V15.032H28.784ZM34.656 12.872V15.56H35.968V12.872H34.656ZM30.24 17.56V18.632H38.912V22.248H40.24V17.56H30.24Z" fill="#3E4048"/>
</svg>
