<svg width="343" height="56" viewBox="0 0 343 56" fill="none" xmlns="http://www.w3.org/2000/svg">
<rect width="343" height="56" rx="6" fill="#F2F2F2"/>
<path d="M113.389 28.672V32.656H115.517V28.672H113.389ZM118.045 28.688V32.672H120.157V28.688H118.045ZM110.109 32.08V33.808H123.517V32.08H110.109ZM111.133 21.776V23.472H122.413V21.776H111.133ZM111.197 27.632V29.312H122.365V27.632H111.197ZM113.149 23.184V27.872H115.277V23.184H113.149ZM118.285 23.184V27.872H120.397V23.184H118.285ZM128.38 22.944V24.608C128.38 27.12 127.18 29.856 124.7 30.96L125.9 32.64C128.684 31.376 130.076 28.032 130.076 24.608V22.944H128.38ZM128.86 22.944V24.608C128.86 27.904 130.236 31.056 133.052 32.272L134.204 30.592C131.724 29.568 130.54 27.008 130.54 24.608V22.944H128.86ZM125.292 22.032V23.776H133.596V22.032H125.292ZM134.972 20.608V35.424H137.116V20.608H134.972ZM145.375 21.456V23.152C145.375 24.832 144.559 26.672 142.495 27.584L143.615 29.232C146.031 28.192 147.039 25.68 147.039 23.152V21.456H145.375ZM145.759 21.456V23.152C145.759 25.616 146.735 27.888 149.039 28.832L150.159 27.216C148.207 26.4 147.423 24.8 147.423 23.152V21.456H145.759ZM153.311 20.624V29.6H155.327V20.624H153.311ZM151.535 24.208V25.936H153.887V24.208H151.535ZM150.175 20.848V29.52H152.159V20.848H150.175ZM145.151 30.24V31.936H153.215V35.424H155.327V30.24H145.151ZM160.669 21.408V22.72C160.669 24.736 159.661 26.72 157.181 27.552L158.317 29.232C161.133 28.256 162.413 25.664 162.413 22.72V21.408H160.669ZM161.101 21.408V22.928C161.101 25.6 162.365 27.904 165.037 28.8L166.141 27.152C163.821 26.432 162.829 24.704 162.829 22.928V21.408H161.101ZM166.957 20.608V29.36H169.085V20.608H166.957ZM168.493 24.032V25.792H171.053V24.032H168.493ZM164.253 29.696C161.165 29.696 159.229 30.768 159.229 32.56C159.229 34.368 161.165 35.424 164.253 35.424C167.325 35.424 169.261 34.368 169.261 32.56C169.261 30.768 167.325 29.696 164.253 29.696ZM164.253 31.344C166.141 31.344 167.149 31.744 167.149 32.56C167.149 33.392 166.141 33.776 164.253 33.776C162.365 33.776 161.341 33.392 161.341 32.56C161.341 31.744 162.365 31.344 164.253 31.344ZM182.88 23.76V25.472H186.32V23.76H182.88ZM178.704 21.52V23.12C178.704 25.216 177.68 27.264 175.232 28.08L176.352 29.744C179.152 28.72 180.416 26.144 180.416 23.12V21.52H178.704ZM179.168 21.52V23.136C179.168 25.936 180.384 28.416 183.04 29.376L184.176 27.744C181.84 26.944 180.864 25.04 180.864 23.136V21.52H179.168ZM185.584 20.624V31.552H187.712V20.624H185.584ZM177.904 33.472V35.168H188.032V33.472H177.904ZM177.904 30.448V34.416H180.048V30.448H177.904ZM190.527 27.36V29.088H191.551C193.759 29.088 195.199 29.04 196.895 28.752L196.703 27.056C195.071 27.328 193.695 27.36 191.551 27.36H190.527ZM190.527 21.6V28.304H192.575V23.296H196.367V21.6H190.527ZM191.967 24.496V26.096H196.207V24.496H191.967ZM200.639 20.608V29.648H202.655V20.608H200.639ZM198.863 24.24V25.936H201.215V24.24H198.863ZM197.471 20.88V29.552H199.455V20.88H197.471ZM192.479 30.288V31.984H200.543V35.424H202.655V30.288H192.479ZM214.253 20.608V35.424H216.365V20.608H214.253ZM215.885 26.384V28.16H218.509V26.384H215.885ZM204.685 22.8V24.496H213.309V22.8H204.685ZM209.021 25.328C206.861 25.328 205.261 26.8 205.261 28.864C205.261 30.928 206.861 32.4 209.021 32.4C211.181 32.4 212.781 30.928 212.781 28.864C212.781 26.8 211.181 25.328 209.021 25.328ZM209.021 27.056C210.029 27.056 210.749 27.728 210.749 28.864C210.749 30 210.029 30.672 209.021 30.672C208.013 30.672 207.293 30 207.293 28.864C207.293 27.728 208.013 27.056 209.021 27.056ZM207.949 20.848V23.44H210.077V20.848H207.949ZM229.676 20.608V35.424H231.82V20.608H229.676ZM225.308 22.144V22.528C225.308 26.496 223.772 29.184 219.516 31.232L220.62 32.928C225.884 30.384 227.42 26.672 227.42 22.144H225.308ZM220.3 22.144V23.824H226.316V22.144H220.3Z" fill="#3E4048"/>
</svg>
