<svg width="268" height="47" viewBox="0 0 268 47" fill="none" xmlns="http://www.w3.org/2000/svg">
<rect width="268" height="47" rx="5" fill="#7E73FF"/>
<path d="M112.668 14.952V27.102H115.08V14.952H112.668ZM103.974 29.406V31.314H115.494V29.406H103.974ZM103.974 25.932V30.396H106.368V25.932H103.974ZM105.126 15.852V17.472C105.126 19.686 103.956 22.008 101.166 22.962L102.372 24.87C105.612 23.736 107.106 20.73 107.106 17.472V15.852H105.126ZM105.612 15.852V17.472C105.612 20.694 107.07 23.52 110.22 24.582L111.444 22.674C108.708 21.792 107.574 19.65 107.574 17.472V15.852H105.612ZM119.327 16.338V18.264H129.893V16.338H119.327ZM117.797 27.66V29.604H132.863V27.66H117.797ZM123.125 21.936V28.614H125.519V21.936H123.125ZM129.029 16.338V17.94C129.029 19.938 129.029 22.35 128.363 25.662L130.757 25.932C131.423 22.368 131.423 20.028 131.423 17.94V16.338H129.029ZM145.029 14.934V31.602H147.405V14.934H145.029ZM146.865 21.432V23.43H149.817V21.432H146.865ZM134.265 17.4V19.308H143.967V17.4H134.265ZM139.143 20.244C136.713 20.244 134.913 21.9 134.913 24.222C134.913 26.544 136.713 28.2 139.143 28.2C141.573 28.2 143.373 26.544 143.373 24.222C143.373 21.9 141.573 20.244 139.143 20.244ZM139.143 22.188C140.277 22.188 141.087 22.944 141.087 24.222C141.087 25.5 140.277 26.256 139.143 26.256C138.009 26.256 137.199 25.5 137.199 24.222C137.199 22.944 138.009 22.188 139.143 22.188ZM137.937 15.204V18.12H140.331V15.204H137.937ZM162.38 14.934V31.602H164.792V14.934H162.38ZM157.466 16.662V17.094C157.466 21.558 155.738 24.582 150.95 26.886L152.192 28.794C158.114 25.932 159.842 21.756 159.842 16.662H157.466ZM151.832 16.662V18.552H158.6V16.662H151.832Z" fill="#F5F5F5"/>
</svg>
