<svg width="56" height="30" viewBox="0 0 56 30" fill="none" xmlns="http://www.w3.org/2000/svg">
<rect width="56" height="30" rx="15" fill="#74757B"/>
<path d="M14.8493 8.904V9.992H21.2493V8.904H14.8493ZM17.0253 12.136V15.752H18.3373V12.136H17.0253ZM20.7213 8.904V9.672C20.7213 10.6 20.7213 11.912 20.3533 13.816L21.6493 13.96C22.0333 12.056 22.0333 10.616 22.0333 9.672V8.904H20.7213ZM24.0013 7.784V18.68H25.3293V7.784H24.0013ZM24.7213 12.488V13.592H27.3933V12.488H24.7213ZM16.1933 20.84V21.928H25.7933V20.84H16.1933ZM16.1933 17.672V21.176H17.5052V17.672H16.1933ZM14.1133 16.376C16.6573 16.376 20.1133 16.312 23.1213 15.784L23.0253 14.824C20.0973 15.224 16.5453 15.288 13.9693 15.288L14.1133 16.376ZM34.4 11.8V12.872H37.616V11.8H34.4ZM34.288 15.432V16.504H37.584V15.432H34.288ZM39.808 7.784V22.248H41.088V7.784H39.808ZM36.912 8.152V21.512H38.16V8.152H36.912ZM33.68 9.608V9.848C33.68 13.256 32.16 16.136 28.784 18.184L29.552 19.128C33.44 16.808 34.96 13.4 34.96 9.608H33.68ZM29.424 9.608V10.696H34.208V9.608H29.424Z" fill="#3E4048"/>
</svg>
