<svg width="56" height="30" viewBox="0 0 56 30" fill="none" xmlns="http://www.w3.org/2000/svg">
<rect width="56" height="30" rx="15" fill="#F2A35E"/>
<path d="M14.5773 8.68V10.392H20.9133V8.68H14.5773ZM16.4013 12.136V15.848H18.5133V12.136H16.4013ZM20.0813 8.68V9.608C20.0813 10.632 20.0813 11.912 19.7613 13.736L21.8253 13.96C22.1773 12.12 22.1773 10.648 22.1773 9.608V8.68H20.0813ZM23.6173 7.608V18.696H25.7613V7.608H23.6173ZM24.9133 12.12V13.864H27.5213V12.12H24.9133ZM15.8733 20.472V22.168H26.2253V20.472H15.8733ZM15.8733 17.704V21H18.0013V17.704H15.8733ZM13.9053 16.712C16.4493 16.712 19.8893 16.648 22.9453 16.072L22.8173 14.568C19.8413 14.984 16.2733 15.032 13.7133 15.032L13.9053 16.712ZM34.352 11.512V13.208H37.36V11.512H34.352ZM34.272 15.208V16.904H37.296V15.208H34.272ZM39.376 7.608V22.424H41.408V7.608H39.376ZM36.32 7.928V21.768H38.304V7.928H36.32ZM32.976 9.352V9.784C32.976 13.368 31.776 15.832 28.432 17.864L29.632 19.352C33.76 16.92 35.024 13.56 35.024 9.352H32.976ZM29.28 9.352V11.048H33.696V9.352H29.28Z" fill="white"/>
</svg>
