<svg width="140" height="47" viewBox="0 0 140 47" fill="none" xmlns="http://www.w3.org/2000/svg">
<rect width="140" height="47" rx="5" fill="#E0E1EB"/>
<path d="M58.526 17.976V18.192C58.526 19.92 56.942 21.432 54.62 21.954L55.232 23.142C57.986 22.458 59.75 20.586 59.75 18.192V17.976H58.526ZM58.796 17.976V18.192C58.796 20.478 60.56 22.26 63.278 22.908L63.89 21.738C61.586 21.216 60.02 19.83 60.02 18.192V17.976H58.796ZM54.962 16.968V18.156H63.584V16.968H54.962ZM58.508 15.168V17.76H60.02V15.168H58.508ZM58.544 24.438V30.936H60.038V24.438H58.544ZM65.744 15.132V31.422H67.22V15.132H65.744ZM54.062 25.536C57.086 25.536 61.046 25.482 64.7 24.852L64.592 23.754C61.028 24.258 56.942 24.276 53.864 24.276L54.062 25.536ZM70.4586 28.056V29.298H85.2006V28.056H70.4586ZM77.0106 24.114V28.47H78.4866V24.114H77.0106ZM76.9746 16.212V17.472C76.9746 20.154 73.8966 22.548 71.0346 23.07L71.6646 24.312C74.9406 23.628 78.2706 20.946 78.2706 17.472V16.212H76.9746ZM77.2446 16.212V17.472C77.2446 20.946 80.5746 23.628 83.8506 24.312L84.4986 23.07C81.6366 22.548 78.5406 20.172 78.5406 17.472V16.212H77.2446Z" fill="#3E4048"/>
</svg>
