<svg width="100" height="30" viewBox="0 0 100 30" fill="none" xmlns="http://www.w3.org/2000/svg">
<rect width="100" height="30" rx="15" fill="#74757B"/>
<path d="M24.5951 7.768V22.264H25.9071V7.768H24.5951ZM20.7711 13.144V14.232H24.9791V13.144H20.7711ZM14.5791 8.92V18.632H21.2191V8.92H19.9071V12.68H15.8911V8.92H14.5791ZM15.8911 13.736H19.9071V17.528H15.8911V13.736ZM39.2179 7.784V17.576H40.5459V7.784H39.2179ZM35.2019 16.488V17C35.2019 19.112 32.9459 20.712 30.3379 21.144L30.8659 22.2C33.7939 21.624 36.3379 19.784 36.3379 17V16.488H35.2019ZM35.4259 16.488V17C35.4259 19.768 37.9219 21.592 40.8019 22.168L41.3459 21.128C38.7859 20.664 36.5779 19.096 36.5779 17V16.488H35.4259ZM34.9619 8.792V9.256C34.9619 12.184 33.2819 14.472 29.1219 15.768L29.6339 16.84C34.3219 15.352 36.3219 12.552 36.3219 8.792H34.9619ZM29.7459 8.792V9.864H35.6819V8.792H29.7459ZM34.7859 11.608L29.0259 11.864L29.2499 12.936L34.7859 12.536V11.608ZM53.9686 7.768V22.264H55.2966V7.768H53.9686ZM44.2726 17.672V18.776H45.4726C47.9526 18.776 50.1286 18.68 52.7526 18.248L52.6086 17.16C50.0486 17.576 47.8886 17.672 45.4726 17.672H44.2726ZM44.2406 9.128V10.216H49.5846V13.208H44.2726V18.088H45.6006V14.296H50.9286V9.128H44.2406ZM63.9514 8.776V9.88C63.9514 12.344 61.2314 14.552 58.6874 15.032L59.2794 16.136C62.1754 15.48 65.1034 13.032 65.1034 9.88V8.776H63.9514ZM64.1914 8.776V9.88C64.1914 13.048 67.1354 15.48 70.0154 16.136L70.6074 15.032C68.0794 14.552 65.3434 12.36 65.3434 9.88V8.776H64.1914ZM58.1594 19.208V20.296H71.2634V19.208H58.1594ZM74.5581 15.576V16.648H84.4941V15.576H74.5581ZM72.8781 19.288V20.392H85.9821V19.288H72.8781ZM74.5581 9.016V15.912H75.9021V10.104H84.3341V9.016H74.5581ZM75.4701 12.248V13.304H84.0301V12.248H75.4701Z" fill="#3E4048"/>
</svg>
