<svg width="94" height="94" viewBox="0 0 94 94" fill="none" xmlns="http://www.w3.org/2000/svg">
<g filter="url(#filter0_d_547_7783)">
<circle cx="47" cy="46.9998" r="32" fill="#3E4048"/>
<path d="M54.5 47.9998L47.5 42.9998L40.5 47.9998V31.9998C40.5 31.4693 40.7107 30.9606 41.0858 30.5855C41.4609 30.2105 41.9696 29.9998 42.5 29.9998H52.5C53.0304 29.9998 53.5391 30.2105 53.9142 30.5855C54.2893 30.9606 54.5 31.4693 54.5 31.9998V47.9998Z" stroke="#7E73FF" stroke-width="2" stroke-linecap="round" stroke-linejoin="round"/>
<path opacity="0.5" d="M36.2116 55.7298V64.7898H37.0316V55.7298H36.2116ZM34.2616 59.0298V59.7098H36.4516V59.0298H34.2616ZM31.8916 57.0298V58.3798C31.8916 59.9898 30.8216 61.6998 29.5216 62.3398L30.0116 62.9998C31.4416 62.2598 32.5616 60.3298 32.5616 58.3798V57.0298H31.8916ZM32.0616 57.0298V58.3798C32.0616 60.2398 33.1616 62.0998 34.5916 62.8098L35.0816 62.1598C33.7716 61.5398 32.7216 59.8898 32.7216 58.3798V57.0298H32.0616ZM29.8516 56.6598V57.3498H34.7716V56.6598H29.8516ZM41.0208 56.7098V57.4398C41.0208 58.7298 40.1208 59.8998 38.7608 60.3798L39.1808 61.0398C40.7008 60.4898 41.7008 59.0998 41.7008 57.4398V56.7098H41.0208ZM41.1708 56.7098V57.4298C41.1708 58.9698 42.1308 60.2598 43.6408 60.7598L44.0408 60.1098C42.7108 59.6698 41.8508 58.6098 41.8508 57.4298V56.7098H41.1708ZM39.0108 56.4098V57.0898H43.8408V56.4098H39.0108ZM44.9808 55.7398V61.1898H45.8108V55.7398H44.9808ZM45.5808 58.0298V58.7298H47.1508V58.0298H45.5808ZM42.9308 61.4298C41.0908 61.4298 39.9608 62.0398 39.9608 63.0898C39.9608 64.1498 41.0908 64.7598 42.9308 64.7598C44.7708 64.7598 45.9008 64.1498 45.9008 63.0898C45.9008 62.0398 44.7708 61.4298 42.9308 61.4298ZM42.9308 62.0998C44.2708 62.0998 45.0908 62.4598 45.0908 63.0898C45.0908 63.7298 44.2708 64.1098 42.9308 64.1098C41.5908 64.1098 40.7708 63.7298 40.7708 63.0898C40.7708 62.4598 41.5908 62.0998 42.9308 62.0998ZM54.12 55.7398V64.7798H54.95V55.7398H54.12ZM54.75 59.4498V60.1498H56.43V59.4498H54.75ZM47.95 57.1798V57.8598H53.28V57.1798H47.95ZM50.65 58.6098C49.38 58.6098 48.45 59.4698 48.45 60.6898C48.45 61.9098 49.38 62.7698 50.65 62.7698C51.93 62.7698 52.85 61.9098 52.85 60.6898C52.85 59.4698 51.93 58.6098 50.65 58.6098ZM50.65 59.2998C51.47 59.2998 52.06 59.8698 52.06 60.6898C52.06 61.4998 51.47 62.0798 50.65 62.0798C49.83 62.0798 49.24 61.4998 49.24 60.6898C49.24 59.8698 49.83 59.2998 50.65 59.2998ZM50.22 55.8498V57.4898H51.05V55.8498H50.22ZM63.7792 55.7398V64.7798H64.6092V55.7398H63.7792ZM61.1292 56.7098V56.8498C61.1292 59.2498 59.9192 61.1698 57.3092 62.4298L57.7492 63.0998C60.7692 61.6198 61.9492 59.3298 61.9492 56.7098H61.1292ZM57.7192 56.7098V57.3898H61.4892V56.7098H57.7192Z" fill="#E0E1EB"/>
</g>
<defs>
<filter id="filter0_d_547_7783" x="0" y="-0.000244141" width="94" height="94" filterUnits="userSpaceOnUse" color-interpolation-filters="sRGB">
<feFlood flood-opacity="0" result="BackgroundImageFix"/>
<feColorMatrix in="SourceAlpha" type="matrix" values="0 0 0 0 0 0 0 0 0 0 0 0 0 0 0 0 0 0 127 0" result="hardAlpha"/>
<feOffset/>
<feGaussianBlur stdDeviation="7.5"/>
<feComposite in2="hardAlpha" operator="out"/>
<feColorMatrix type="matrix" values="0 0 0 0 0.270588 0 0 0 0 0.207843 0 0 0 0 0.513726 0 0 0 0.35 0"/>
<feBlend mode="normal" in2="BackgroundImageFix" result="effect1_dropShadow_547_7783"/>
<feBlend mode="normal" in="SourceGraphic" in2="effect1_dropShadow_547_7783" result="shape"/>
</filter>
</defs>
</svg>
