<svg width="46" height="46" viewBox="0 0 46 46" fill="none" xmlns="http://www.w3.org/2000/svg">
<path d="M31 24V22C31 20.9391 30.5786 19.9217 29.8284 19.1716C29.0783 18.4214 28.0609 18 27 18H19C17.9391 18 16.9217 18.4214 16.1716 19.1716C15.4214 19.9217 15 20.9391 15 22V24" stroke="#7E73FF" stroke-width="1.5" stroke-linecap="round" stroke-linejoin="round"/>
<path d="M23 14C25.2091 14 27 12.2091 27 10C27 7.79086 25.2091 6 23 6C20.7909 6 19 7.79086 19 10C19 12.2091 20.7909 14 23 14Z" stroke="#7E73FF" stroke-width="1.5" stroke-linecap="round" stroke-linejoin="round"/>
<path d="M13.8159 31.904V38.339H18.3809V31.904H13.8159ZM17.4899 32.641V37.602H14.7069V32.641H17.4899ZM20.1519 30.914V40.858H21.0759V30.914H20.1519ZM20.8559 34.885V35.655H22.7039V34.885H20.8559ZM30.766 30.903V40.869H31.679V30.903H30.766ZM26.432 31.673C24.969 31.673 23.913 33.026 23.913 35.138C23.913 37.261 24.969 38.614 26.432 38.614C27.906 38.614 28.962 37.261 28.962 35.138C28.962 33.026 27.906 31.673 26.432 31.673ZM26.432 32.498C27.411 32.498 28.082 33.532 28.082 35.138C28.082 36.755 27.411 37.811 26.432 37.811C25.464 37.811 24.782 36.755 24.782 35.138C24.782 33.532 25.464 32.498 26.432 32.498Z" fill="#7E73FF"/>
</svg>
