<svg width="56" height="30" viewBox="0 0 56 30" fill="none" xmlns="http://www.w3.org/2000/svg">
<rect width="56" height="30" rx="15" fill="#D98CA0"/>
<path d="M17.2493 9.944V11.608C17.2493 14.04 16.0493 16.808 13.6013 17.96L14.8013 19.64C17.5213 18.36 18.9293 14.952 18.9293 11.608V9.944H17.2493ZM17.6973 9.944V11.608C17.6973 14.76 19.0733 18.008 21.7933 19.272L22.9613 17.592C20.5293 16.472 19.3773 13.848 19.3773 11.608V9.944H17.6973ZM14.1773 9.032V10.776H22.3053V9.032H14.1773ZM23.3933 7.608V22.424H25.5373V7.608H23.3933ZM25.0573 13.256V15.016H27.6813V13.256H25.0573ZM38.848 7.608V22.424H40.992V7.608H38.848ZM34.48 9.144V9.528C34.48 13.496 32.944 16.184 28.688 18.232L29.792 19.928C35.056 17.384 36.592 13.672 36.592 9.144H34.48ZM29.472 9.144V10.824H35.488V9.144H29.472Z" fill="white"/>
</svg>
