<svg width="88" height="88" viewBox="0 0 88 88" fill="none" xmlns="http://www.w3.org/2000/svg">
<g filter="url(#filter0_d_601_5523)">
<circle cx="44" cy="44" r="36" fill="#3E4048"/>
<circle cx="44" cy="44" r="35.5" stroke="#F2F2F2"/>
</g>
<rect width="49" height="44" transform="translate(21 20)" fill="#3E4048"/>
<path d="M46.5595 45.8433H39.2654C38.6205 45.8433 38.0021 45.5872 37.5461 45.1312C37.0901 44.6752 36.834 44.0568 36.834 43.412V28.8237C36.834 28.1789 37.0901 27.5604 37.5461 27.1045C38.0021 26.6485 38.6205 26.3923 39.2654 26.3923H53.8536V32.4708" stroke="#E0E1EB" stroke-width="1.5" stroke-linecap="round" stroke-linejoin="round"/>
<path d="M47.7749 40.9801H39.2651C38.6203 40.9801 38.0019 41.2362 37.5459 41.6922M53.8534 48.2742L57.5004 44.6271M53.8534 48.2742V42.8036V37.333M53.8534 48.2742L50.2063 44.6271" stroke="#E0E1EB" stroke-width="1.5" stroke-linecap="round" stroke-linejoin="round"/>
<path opacity="0.6" d="M24.2163 55.03V56.5C24.2163 58.03 23.1263 59.75 21.8363 60.38L22.3163 61.04C23.7263 60.32 24.8763 58.38 24.8763 56.5V55.03H24.2163ZM24.3663 55.03V56.5C24.3663 58.29 25.4563 60.11 26.8863 60.82L27.3563 60.16C26.0463 59.54 25.0263 57.93 25.0263 56.5V55.03H24.3663ZM22.1563 54.66V55.36H27.0263V54.66H22.1563ZM28.0963 53.74V62.78H28.9363V53.74H28.0963ZM28.7363 57.39V58.09H30.4163V57.39H28.7363ZM35.6955 56.8V57.48H38.2155V56.8H35.6955ZM33.5155 54.52V56.13C33.5155 57.81 32.4955 59.55 31.1655 60.21L31.6955 60.87C33.1255 60.1 34.1955 58.16 34.1955 56.13V54.52H33.5155ZM33.6755 54.52V56.13C33.6755 58.11 34.7255 59.97 36.1855 60.71L36.6755 60.04C35.3655 59.42 34.3455 57.78 34.3455 56.13V54.52H33.6755ZM37.8055 53.73V62.79H38.6255V53.73H37.8055ZM45.1748 56.23V56.91H47.4548V56.23H45.1748ZM46.9848 53.75V60.37H47.8148V53.75H46.9848ZM42.0448 61.9V62.58H48.0648V61.9H42.0448ZM42.0448 59.79V62.25H42.8748V59.79H42.0448ZM42.6848 54.87V55.6C42.6848 56.88 41.7548 58.08 40.4048 58.56L40.8348 59.22C42.3448 58.66 43.3648 57.24 43.3648 55.6V54.87H42.6848ZM42.8448 54.87V55.59C42.8448 57.12 43.8148 58.48 45.2848 59.01L45.7048 58.36C44.3948 57.9 43.5148 56.76 43.5148 55.59V54.87H42.8448ZM40.6648 54.48V55.15H45.4948V54.48H40.6648ZM58.4852 53.74V62.78H59.2852V53.74H58.4852ZM55.1952 56.98V57.67H56.9252V56.98H55.1952ZM56.6752 53.95V62.32H57.4552V53.95H56.6752ZM53.4552 55.14V56.29C53.4552 57.95 52.7552 59.6 51.4952 60.36L52.0052 60.98C53.3352 60.14 54.0952 58.27 54.0952 56.29V55.14H53.4552ZM53.6252 55.14V56.29C53.6252 58.18 54.3552 59.96 55.6752 60.76L56.1852 60.15C54.9452 59.43 54.2652 57.86 54.2652 56.29V55.14H53.6252ZM51.7452 54.79V55.48H55.8752V54.79H51.7452ZM63.0345 54.67V55.4C63.0345 56.69 62.1345 57.85 60.7645 58.33L61.2045 58.98C62.7145 58.44 63.7145 57.06 63.7145 55.4V54.67H63.0345ZM63.1845 54.67V55.39C63.1845 56.95 64.1445 58.28 65.6345 58.8L66.0645 58.15C64.7345 57.7 63.8645 56.59 63.8645 55.39V54.67H63.1845ZM61.0245 54.37V55.05H65.8545V54.37H61.0245ZM66.9945 53.74V59.18H67.8245V53.74H66.9945ZM67.5945 56.12V56.81H69.1645V56.12H67.5945ZM61.9545 59.66V60.35H66.9945V62.78H67.8245V59.66H61.9545Z" fill="white"/>
<defs>
<filter id="filter0_d_601_5523" x="1.43051e-06" y="1.43051e-06" width="88" height="88" filterUnits="userSpaceOnUse" color-interpolation-filters="sRGB">
<feFlood flood-opacity="0" result="BackgroundImageFix"/>
<feColorMatrix in="SourceAlpha" type="matrix" values="0 0 0 0 0 0 0 0 0 0 0 0 0 0 0 0 0 0 127 0" result="hardAlpha"/>
<feOffset/>
<feGaussianBlur stdDeviation="4"/>
<feComposite in2="hardAlpha" operator="out"/>
<feColorMatrix type="matrix" values="0 0 0 0 0.128809 0 0 0 0 0.137562 0 0 0 0 0.183517 0 0 0 0.53 0"/>
<feBlend mode="normal" in2="BackgroundImageFix" result="effect1_dropShadow_601_5523"/>
<feBlend mode="normal" in="SourceGraphic" in2="effect1_dropShadow_601_5523" result="shape"/>
</filter>
</defs>
</svg>
