<svg width="200" height="66" viewBox="0 0 200 66" fill="none" xmlns="http://www.w3.org/2000/svg">
<g clip-path="url(#clip0_547_2300)">
<path d="M200 31.4781C200 38.2196 198.113 57.5441 176.838 61.9272V66L166.553 56.6907C173.342 56.6907 181.956 54.6272 187.463 48.2426C186.166 48.6305 184.815 48.871 183.417 48.9408C183.114 48.9563 182.811 48.964 182.5 48.964C182.189 48.964 181.894 48.964 181.599 48.9408C177.156 48.7468 173.319 47.0479 170.111 43.8595C166.911 40.6478 165.217 36.8155 165.023 32.378C165.008 32.0832 165 31.7807 165 31.4781C165 31.1756 165.008 30.873 165.023 30.5782C165.194 26.6916 166.515 23.286 168.992 20.3613C169.342 19.9347 169.715 19.5313 170.111 19.1434C170.445 18.802 170.794 18.484 171.144 18.1892C171.222 18.1193 171.292 18.0495 171.369 17.9952C174.313 15.5205 177.723 14.1939 181.599 14.0233C181.894 14.0078 182.197 14 182.5 14C182.803 14 183.106 14 183.401 14.0233C186.951 14.1784 190.112 15.3033 192.862 17.3979H192.87C193.561 17.9254 194.221 18.4995 194.858 19.1434C195.464 19.7485 196.015 20.3691 196.52 21.0207C196.528 21.0285 196.536 21.0363 196.536 21.044C198.672 23.8135 199.814 26.9942 199.977 30.5782C199.992 30.873 200 31.1756 200 31.4781Z" fill="#7A72FA"/>
<path d="M55.5 14C50.6687 14 46.5364 15.7054 43.111 19.1085C39.7011 22.4961 38 26.586 38 31.3858V48H44.9984V31.3858C44.9984 28.5075 46.0237 26.0536 48.0821 24.0163C50.1327 21.9791 52.6105 20.9528 55.5 20.9528C58.3895 20.9528 60.8673 21.9714 62.9179 24.0163C64.9685 26.0536 66.0016 28.5152 66.0016 31.3858V48H73V31.3858C73 26.586 71.2834 22.4961 67.858 19.1085C64.4481 15.6977 60.3313 14 55.5 14Z" fill="#7A72FA"/>
<path d="M17.5 14C12.6687 14 8.5364 15.7166 5.11096 19.142C1.70107 22.5519 0 26.6687 0 31.5C0 36.3313 1.70107 40.4636 5.11096 43.889C8.54416 47.2989 12.6687 49 17.5 49C21.4925 49 24.9878 47.8427 28.0016 45.5357V48.2233H35V31.5C35 26.6687 33.2834 22.5519 29.858 19.142C26.4481 15.7088 22.3313 14 17.5 14ZM24.9179 38.9257C22.8673 40.9763 20.3895 42.0093 17.5 42.0093C14.6105 42.0093 12.1327 40.984 10.0821 38.9257C8.03151 36.8751 6.99845 34.3972 6.99845 31.5078C6.99845 28.6183 8.02375 26.1405 10.0821 24.0899C12.1327 22.0393 14.6105 21.0062 17.5 21.0062C20.3895 21.0062 22.8673 22.0315 24.9179 24.0899C26.9685 26.1405 28.0016 28.6183 28.0016 31.5078C28.0016 34.3972 26.9763 36.8751 24.9179 38.9257Z" fill="#7A72FA"/>
<path d="M123 0H116V7H123V0Z" fill="#7A72FA"/>
<path d="M106.002 17.4673C102.988 15.1606 99.4925 14.0033 95.5 14.0033C90.6687 14.0033 86.5364 15.7198 83.111 19.1449C79.7011 22.5544 78 26.6708 78 31.5017C78 36.3325 79.7011 40.4644 83.111 43.8895C86.5442 47.2991 90.6687 49 95.5 49C100.331 49 104.448 47.2991 107.858 43.8895C111.291 40.4566 113 36.3325 113 31.5017V0H106.002V17.4673ZM102.918 38.9266C100.867 40.977 98.3895 42.01 95.5 42.01C92.6105 42.01 90.1327 40.9848 88.0821 38.9266C86.0315 36.8762 84.9984 34.3986 84.9984 31.5094C84.9984 28.6202 86.0237 26.1427 88.0821 24.0922C90.1327 22.0418 92.6105 21.0089 95.5 21.0089C98.3895 21.0089 100.867 22.0341 102.918 24.0922C104.968 26.1427 106.002 28.6202 106.002 31.5094C106.002 34.3986 104.976 36.8762 102.918 38.9266Z" fill="#7A72FA"/>
<path d="M144.5 14C139.669 14 135.536 15.7054 132.111 19.1085C128.701 22.4961 127 26.586 127 31.3858V48H133.998V31.3858C133.998 28.5075 135.024 26.0536 137.082 24.0163C139.133 21.9791 141.611 20.9528 144.5 20.9528C147.389 20.9528 149.867 21.9714 151.918 24.0163C153.968 26.0536 155.002 28.5152 155.002 31.3858V48H162V31.3858C162 26.586 160.283 22.4961 156.858 19.1085C153.448 15.6977 149.331 14 144.5 14Z" fill="#7A72FA"/>
<path d="M123 15H116V47H123V15Z" fill="#7A72FA"/>
</g>
<defs>
<clipPath id="clip0_547_2300">
<rect width="200" height="66" fill="white"/>
</clipPath>
</defs>
</svg>
