<svg width="140" height="47" viewBox="0 0 140 47" fill="none" xmlns="http://www.w3.org/2000/svg">
<rect width="140" height="47" rx="5" fill="#7E73FF"/>
<path d="M65.312 14.916V31.638H67.706V14.916H65.312ZM62.396 20.748V22.674H65.87V20.748H62.396ZM57.572 17.562V19.038C57.572 22.134 56.258 25.32 53.468 26.634L54.872 28.524C57.986 26.994 59.462 23.106 59.462 19.038V17.562H57.572ZM58.13 17.562V19.038C58.13 22.98 59.57 26.706 62.702 28.182L64.088 26.31C61.298 25.05 60.002 21.972 60.002 19.038V17.562H58.13ZM54.152 16.536V18.462H63.422V16.536H54.152ZM73.9866 16.788V17.832C73.9866 19.956 72.8166 22.134 70.0446 23.052L71.2326 24.942C74.4546 23.88 75.9486 21.018 75.9486 17.832V16.788H73.9866ZM74.4726 16.788V17.832C74.4726 20.802 75.9126 23.412 79.0806 24.366L80.2146 22.494C77.5326 21.684 76.4166 19.776 76.4166 17.832V16.788H74.4726ZM70.6746 16.05V17.958H79.6746V16.05H70.6746ZM81.0066 14.934V24.816H83.4006V14.934H81.0066ZM82.7346 18.768V20.73H85.6146V18.768H82.7346ZM77.9646 25.122C74.4906 25.122 72.3126 26.328 72.3126 28.362C72.3126 30.396 74.4906 31.602 77.9646 31.602C81.4206 31.602 83.5986 30.396 83.5986 28.362C83.5986 26.328 81.4206 25.122 77.9646 25.122ZM77.9646 26.994C80.0886 26.994 81.2226 27.426 81.2226 28.362C81.2226 29.298 80.0886 29.766 77.9646 29.766C75.8406 29.766 74.6886 29.298 74.6886 28.362C74.6886 27.426 75.8406 26.994 77.9646 26.994Z" fill="#F5F5F5"/>
</svg>
