<svg width="87" height="56" viewBox="0 0 87 56" fill="none" xmlns="http://www.w3.org/2000/svg">
<path d="M0 12C0 5.37258 5.37258 0 12 0H87V56H12C5.37258 56 0 50.6274 0 44V12Z" fill="#E0E1EB"/>
<path d="M25.3351 21.66C23.3611 21.66 21.8771 22.892 21.8771 24.628C21.8771 26.35 23.3611 27.582 25.3351 27.582C27.3091 27.582 28.7931 26.35 28.7931 24.628C28.7931 22.892 27.3091 21.66 25.3351 21.66ZM25.3351 23.172C26.2871 23.172 26.9871 23.704 26.9871 24.628C26.9871 25.552 26.2871 26.084 25.3351 26.084C24.3831 26.084 23.6691 25.552 23.6691 24.628C23.6691 23.704 24.3831 23.172 25.3351 23.172ZM30.5851 21.282V27.764H32.4611V21.282H30.5851ZM23.8091 28.296V29.738H30.6131V30.508H23.8371V33.42H25.6571V31.852H32.4611V28.296H23.8091ZM23.8371 32.664V34.106H32.7831V32.664H23.8371ZM37.402 21.982V23.13C37.402 24.894 36.52 26.63 34.35 27.358L35.344 28.828C37.808 27.974 38.928 25.706 38.928 23.13V21.982H37.402ZM37.78 21.982V23.312C37.78 25.65 38.886 27.666 41.224 28.45L42.19 27.008C40.16 26.378 39.292 24.866 39.292 23.312V21.982H37.78ZM42.904 21.282V28.94H44.766V21.282H42.904ZM44.248 24.278V25.818H46.488V24.278H44.248ZM40.538 29.234C37.836 29.234 36.142 30.172 36.142 31.74C36.142 33.322 37.836 34.246 40.538 34.246C43.226 34.246 44.92 33.322 44.92 31.74C44.92 30.172 43.226 29.234 40.538 29.234ZM40.538 30.676C42.19 30.676 43.072 31.026 43.072 31.74C43.072 32.468 42.19 32.804 40.538 32.804C38.886 32.804 37.99 32.468 37.99 31.74C37.99 31.026 38.886 30.676 40.538 30.676Z" fill="#3E4048"/>
<path d="M54 26L58 30L62 26" stroke="#3E4048" stroke-width="2" stroke-linecap="round" stroke-linejoin="round"/>
</svg>
