<svg width="373" height="86" viewBox="0 0 373 86" fill="none" xmlns="http://www.w3.org/2000/svg">
<g filter="url(#filter0_d_547_10999)">
<path d="M158.719 47.064V48.792H172.127V47.064H158.719ZM164.335 44.264V47.768H166.463V44.264H164.335ZM160.223 36.568V38.248H168.511V39.832H160.255V43.992H162.367V41.496H170.623V36.568H160.223ZM160.255 43.144V44.856H170.959V43.144H160.255ZM174.797 36.968V38.648H184.189V36.968H174.797ZM173.437 46.76V48.488H186.829V46.76H173.437ZM183.069 36.968V38.728C183.069 40.728 183.069 42.84 182.525 45.688L184.653 45.864C185.181 42.824 185.181 40.808 185.181 38.728V36.968H183.069ZM192.108 36.632C189.852 36.632 188.22 38.68 188.22 41.912C188.22 45.176 189.852 47.224 192.108 47.224C194.364 47.224 195.996 45.176 195.996 41.912C195.996 38.68 194.364 36.632 192.108 36.632ZM192.108 38.568C193.212 38.568 193.964 39.736 193.964 41.912C193.964 44.12 193.212 45.304 192.108 45.304C191.004 45.304 190.268 44.12 190.268 41.912C190.268 39.736 191.004 38.568 192.108 38.568ZM197.612 35.608V50.424H199.756V35.608H197.612ZM199.276 41.192V42.952H201.9V41.192H199.276ZM202.859 42.104V43.816H216.267V42.104H202.859ZM208.475 42.856V45.208H210.587V42.856H208.475ZM208.427 45.8V46.056C208.427 47.192 206.955 48.488 203.723 48.776L204.411 50.376C208.219 50.024 210.235 48.216 210.235 46.056V45.8H208.427ZM208.811 45.8V46.056C208.811 48.312 210.859 50.024 214.651 50.376L215.323 48.776C212.043 48.504 210.619 47.272 210.619 46.056V45.8H208.811ZM209.563 35.768C206.283 35.768 204.203 36.808 204.203 38.568C204.203 40.328 206.283 41.368 209.563 41.368C212.843 41.368 214.923 40.328 214.923 38.568C214.923 36.808 212.843 35.768 209.563 35.768ZM209.563 37.352C211.595 37.352 212.731 37.752 212.731 38.568C212.731 39.352 211.595 39.768 209.563 39.768C207.515 39.768 206.395 39.352 206.395 38.568C206.395 37.752 207.515 37.352 209.563 37.352Z" fill="white"/>
<rect x="15.5" y="15.5" width="342" height="55" rx="11.5" stroke="#7E73FF" shape-rendering="crispEdges"/>
</g>
<defs>
<filter id="filter0_d_547_10999" x="0" y="0" width="373" height="86" filterUnits="userSpaceOnUse" color-interpolation-filters="sRGB">
<feFlood flood-opacity="0" result="BackgroundImageFix"/>
<feColorMatrix in="SourceAlpha" type="matrix" values="0 0 0 0 0 0 0 0 0 0 0 0 0 0 0 0 0 0 127 0" result="hardAlpha"/>
<feOffset/>
<feGaussianBlur stdDeviation="7.5"/>
<feComposite in2="hardAlpha" operator="out"/>
<feColorMatrix type="matrix" values="0 0 0 0 0.270588 0 0 0 0 0.207843 0 0 0 0 0.513726 0 0 0 0.35 0"/>
<feBlend mode="normal" in2="BackgroundImageFix" result="effect1_dropShadow_547_10999"/>
<feBlend mode="normal" in="SourceGraphic" in2="effect1_dropShadow_547_10999" result="shape"/>
</filter>
</defs>
</svg>
