<svg width="56" height="30" viewBox="0 0 56 30" fill="none" xmlns="http://www.w3.org/2000/svg">
<rect width="56" height="30" rx="8" fill="#7E73FF"/>
<path d="M17.2493 8.376V9.72C17.2493 11.64 16.2253 13.528 13.7613 14.312L14.8333 16.008C17.6973 15.064 18.9773 12.568 18.9773 9.72V8.376H17.2493ZM17.6813 8.376V9.912C17.6813 12.584 18.9293 14.936 21.6813 15.816L22.7213 14.152C20.3853 13.416 19.3933 11.688 19.3933 9.912V8.376H17.6813ZM23.4573 7.608V16.552H25.5853V7.608H23.4573ZM24.9933 11.208V12.968H27.5533V11.208H24.9933ZM15.6973 17.176V18.888H23.4573V22.424H25.5853V17.176H15.6973ZM39.344 7.608V22.424H41.36V7.608H39.344ZM34.464 12.664V14.392H36.912V12.664H34.464ZM36.352 7.848V21.752H38.336V7.848H36.352ZM31.264 10.024V11.544C31.264 14.072 30.512 16.728 28.336 18.088L29.6 19.656C31.952 18.184 32.864 14.872 32.864 11.544V10.024H31.264ZM31.744 10.024V11.544C31.744 14.808 32.608 17.912 34.96 19.304L36.208 17.752C34.064 16.504 33.328 14.008 33.328 11.544V10.024H31.744ZM28.896 9.096V10.808H35.504V9.096H28.896Z" fill="white"/>
</svg>
