<svg width="56" height="30" viewBox="0 0 56 30" fill="none" xmlns="http://www.w3.org/2000/svg">
<rect width="56" height="30" rx="8" fill="#7E73FF"/>
<path d="M24.2253 7.592V22.456H26.3533V7.592H24.2253ZM21.6333 12.776V14.488H24.7213V12.776H21.6333ZM17.3453 9.944V11.256C17.3453 14.008 16.1773 16.84 13.6973 18.008L14.9453 19.688C17.7133 18.328 19.0253 14.872 19.0253 11.256V9.944H17.3453ZM17.8413 9.944V11.256C17.8413 14.76 19.1213 18.072 21.9053 19.384L23.1373 17.72C20.6573 16.6 19.5053 13.864 19.5053 11.256V9.944H17.8413ZM14.3053 9.032V10.744H22.5453V9.032H14.3053ZM31.936 9.256V10.184C31.936 12.072 30.896 14.008 28.432 14.824L29.488 16.504C32.352 15.56 33.68 13.016 33.68 10.184V9.256H31.936ZM32.368 9.256V10.184C32.368 12.824 33.648 15.144 36.464 15.992L37.472 14.328C35.088 13.608 34.096 11.912 34.096 10.184V9.256H32.368ZM28.992 8.6V10.296H36.992V8.6H28.992ZM38.176 7.608V16.392H40.304V7.608H38.176ZM39.712 11.016V12.76H42.272V11.016H39.712ZM35.472 16.664C32.384 16.664 30.448 17.736 30.448 19.544C30.448 21.352 32.384 22.424 35.472 22.424C38.544 22.424 40.48 21.352 40.48 19.544C40.48 17.736 38.544 16.664 35.472 16.664ZM35.472 18.328C37.36 18.328 38.368 18.712 38.368 19.544C38.368 20.376 37.36 20.792 35.472 20.792C33.584 20.792 32.56 20.376 32.56 19.544C32.56 18.712 33.584 18.328 35.472 18.328Z" fill="white"/>
</svg>
