<svg width="140" height="47" viewBox="0 0 140 47" fill="none" xmlns="http://www.w3.org/2000/svg">
<rect width="140" height="47" rx="5" fill="#7E73FF"/>
<path d="M57.464 15.798V17.31C57.464 19.47 56.312 21.594 53.54 22.476L54.746 24.384C57.968 23.322 59.408 20.514 59.408 17.31V15.798H57.464ZM57.95 15.798V17.526C57.95 20.532 59.354 23.178 62.45 24.168L63.62 22.296C60.992 21.468 59.876 19.524 59.876 17.526V15.798H57.95ZM64.448 14.934V24.996H66.842V14.934H64.448ZM66.176 18.984V20.964H69.056V18.984H66.176ZM55.718 25.698V27.624H64.448V31.602H66.842V25.698H55.718ZM82.3206 14.934V31.602H84.5886V14.934H82.3206ZM76.8306 20.622V22.566H79.5846V20.622H76.8306ZM78.9546 15.204V30.846H81.1866V15.204H78.9546ZM73.2306 17.652V19.362C73.2306 22.206 72.3846 25.194 69.9366 26.724L71.3586 28.488C74.0046 26.832 75.0306 23.106 75.0306 19.362V17.652H73.2306ZM73.7706 17.652V19.362C73.7706 23.034 74.7426 26.526 77.3886 28.092L78.7926 26.346C76.3806 24.942 75.5526 22.134 75.5526 19.362V17.652H73.7706ZM70.5666 16.608V18.534H78.0006V16.608H70.5666Z" fill="#F5F5F5"/>
</svg>
