<svg width="373" height="86" viewBox="0 0 373 86" fill="none" xmlns="http://www.w3.org/2000/svg">
<g filter="url(#filter0_d_607_3858)">
<rect x="15" y="15" width="343" height="56" rx="12" fill="#7E73FF" shape-rendering="crispEdges"/>
<path d="M150.859 47.064V48.792H164.267V47.064H150.859ZM156.475 44.264V47.768H158.603V44.264H156.475ZM152.363 36.568V38.248H160.651V39.832H152.395V43.992H154.507V41.496H162.763V36.568H152.363ZM152.395 43.144V44.856H163.099V43.144H152.395ZM166.938 36.968V38.648H176.33V36.968H166.938ZM165.578 46.76V48.488H178.97V46.76H165.578ZM175.21 36.968V38.728C175.21 40.728 175.21 42.84 174.666 45.688L176.794 45.864C177.322 42.824 177.322 40.808 177.322 38.728V36.968H175.21ZM190.457 35.624V46.264H192.601V35.624H190.457ZM182.729 48.472V50.168H192.969V48.472H182.729ZM182.729 45.192V49.16H184.857V45.192H182.729ZM184.537 36.552C182.265 36.552 180.505 38.12 180.505 40.312C180.505 42.488 182.265 44.072 184.537 44.072C186.809 44.072 188.553 42.488 188.553 40.312C188.553 38.12 186.809 36.552 184.537 36.552ZM184.537 38.392C185.625 38.392 186.473 39.096 186.473 40.312C186.473 41.512 185.625 42.216 184.537 42.216C183.433 42.216 182.585 41.512 182.585 40.312C182.585 39.096 183.433 38.392 184.537 38.392ZM204.503 35.608V50.424H206.615V35.608H204.503ZM206.135 41.384V43.16H208.759V41.384H206.135ZM194.935 37.8V39.496H203.559V37.8H194.935ZM199.271 40.328C197.111 40.328 195.511 41.8 195.511 43.864C195.511 45.928 197.111 47.4 199.271 47.4C201.431 47.4 203.031 45.928 203.031 43.864C203.031 41.8 201.431 40.328 199.271 40.328ZM199.271 42.056C200.279 42.056 200.999 42.728 200.999 43.864C200.999 45 200.279 45.672 199.271 45.672C198.263 45.672 197.543 45 197.543 43.864C197.543 42.728 198.263 42.056 199.271 42.056ZM198.199 35.848V38.44H200.327V35.848H198.199ZM219.926 35.608V50.424H222.07V35.608H219.926ZM215.558 37.144V37.528C215.558 41.496 214.022 44.184 209.766 46.232L210.87 47.928C216.134 45.384 217.67 41.672 217.67 37.144H215.558ZM210.55 37.144V38.824H216.566V37.144H210.55Z" fill="white"/>
</g>
<defs>
<filter id="filter0_d_607_3858" x="0" y="0" width="373" height="86" filterUnits="userSpaceOnUse" color-interpolation-filters="sRGB">
<feFlood flood-opacity="0" result="BackgroundImageFix"/>
<feColorMatrix in="SourceAlpha" type="matrix" values="0 0 0 0 0 0 0 0 0 0 0 0 0 0 0 0 0 0 127 0" result="hardAlpha"/>
<feOffset/>
<feGaussianBlur stdDeviation="7.5"/>
<feComposite in2="hardAlpha" operator="out"/>
<feColorMatrix type="matrix" values="0 0 0 0 0.270588 0 0 0 0 0.207843 0 0 0 0 0.513726 0 0 0 0.35 0"/>
<feBlend mode="normal" in2="BackgroundImageFix" result="effect1_dropShadow_607_3858"/>
<feBlend mode="normal" in="SourceGraphic" in2="effect1_dropShadow_607_3858" result="shape"/>
</filter>
</defs>
</svg>
