<svg width="25" height="24" viewBox="0 0 25 24" fill="none" xmlns="http://www.w3.org/2000/svg">
<path d="M19.5008 2.99902H5.50011C4.39548 2.99902 3.5 3.8945 3.5 4.99913V18.9999C3.5 20.1045 4.39548 21 5.50011 21H19.5008C20.6055 21 21.501 20.1045 21.501 18.9999V4.99913C21.501 3.8945 20.6055 2.99902 19.5008 2.99902Z" stroke="#E0E1EB" stroke-width="2" stroke-linecap="round" stroke-linejoin="round"/>
<path d="M9.00008 9.99967C9.82855 9.99967 10.5002 9.32806 10.5002 8.49959C10.5002 7.67112 9.82855 6.99951 9.00008 6.99951C8.17161 6.99951 7.5 7.67112 7.5 8.49959C7.5 9.32806 8.17161 9.99967 9.00008 9.99967Z" stroke="#E0E1EB" stroke-width="2" stroke-linecap="round" stroke-linejoin="round"/>
<path d="M21.5008 14.9998L16.5006 9.99951L5.5 21.0001" stroke="#E0E1EB" stroke-width="2" stroke-linecap="round" stroke-linejoin="round"/>
</svg>
