<svg width="375" height="812" viewBox="0 0 375 812" fill="none" xmlns="http://www.w3.org/2000/svg">
<rect width="375" height="812" fill="#3E4048"/>
<rect width="375" height="99" fill="#3E4048"/>
<g clip-path="url(#clip0_1113_3553)">
<path d="M287.5 380.478C287.5 387.22 285.613 406.544 264.338 410.927V415L254.053 405.691C260.842 405.691 269.456 403.627 274.963 397.243C273.666 397.63 272.315 397.871 270.917 397.941C270.614 397.956 270.311 397.964 270 397.964C269.689 397.964 269.394 397.964 269.099 397.941C264.656 397.747 260.819 396.048 257.611 392.859C254.411 389.648 252.717 385.815 252.523 381.378C252.508 381.083 252.5 380.781 252.5 380.478C252.5 380.176 252.508 379.873 252.523 379.578C252.694 375.692 254.015 372.286 256.492 369.361C256.842 368.935 257.215 368.531 257.611 368.143C257.945 367.802 258.294 367.484 258.644 367.189C258.722 367.119 258.792 367.05 258.869 366.995C261.813 364.521 265.223 363.194 269.099 363.023C269.394 363.008 269.697 363 270 363C270.303 363 270.606 363 270.901 363.023C274.451 363.178 277.612 364.303 280.362 366.398H280.37C281.061 366.925 281.721 367.499 282.358 368.143C282.964 368.748 283.515 369.369 284.02 370.021C284.028 370.028 284.036 370.036 284.036 370.044C286.172 372.814 287.314 375.994 287.477 379.578C287.492 379.873 287.5 380.176 287.5 380.478Z" fill="#7A72FA"/>
<path d="M143 363C138.169 363 134.036 364.705 130.611 368.108C127.201 371.496 125.5 375.586 125.5 380.386V397H132.498V380.386C132.498 377.507 133.524 375.054 135.582 373.016C137.633 370.979 140.111 369.953 143 369.953C145.889 369.953 148.367 370.971 150.418 373.016C152.468 375.054 153.502 377.515 153.502 380.386V397H160.5V380.386C160.5 375.586 158.783 371.496 155.358 368.108C151.948 364.698 147.831 363 143 363Z" fill="#7A72FA"/>
<path d="M105 363C100.169 363 96.0364 364.717 92.611 368.142C89.2011 371.552 87.5 375.669 87.5 380.5C87.5 385.331 89.2011 389.464 92.611 392.889C96.0442 396.299 100.169 398 105 398C108.992 398 112.488 396.843 115.502 394.536V397.223H122.5V380.5C122.5 375.669 120.783 371.552 117.358 368.142C113.948 364.709 109.831 363 105 363ZM112.418 387.926C110.367 389.976 107.889 391.009 105 391.009C102.111 391.009 99.6327 389.984 97.5821 387.926C95.5315 385.875 94.4984 383.397 94.4984 380.508C94.4984 377.618 95.5237 375.14 97.5821 373.09C99.6327 371.039 102.111 370.006 105 370.006C107.889 370.006 110.367 371.032 112.418 373.09C114.468 375.14 115.502 377.618 115.502 380.508C115.502 383.397 114.476 385.875 112.418 387.926Z" fill="#7A72FA"/>
<path d="M210.5 349H203.5V356H210.5V349Z" fill="#7A72FA"/>
<path d="M193.502 366.467C190.488 364.161 186.992 363.003 183 363.003C178.169 363.003 174.036 364.72 170.611 368.145C167.201 371.554 165.5 375.671 165.5 380.502C165.5 385.333 167.201 389.464 170.611 392.89C174.044 396.299 178.169 398 183 398C187.831 398 191.948 396.299 195.358 392.89C198.791 389.457 200.5 385.333 200.5 380.502V349H193.502V366.467ZM190.418 387.927C188.367 389.977 185.889 391.01 183 391.01C180.111 391.01 177.633 389.985 175.582 387.927C173.532 385.876 172.498 383.399 172.498 380.509C172.498 377.62 173.524 375.143 175.582 373.092C177.633 371.042 180.111 370.009 183 370.009C185.889 370.009 188.367 371.034 190.418 373.092C192.468 375.143 193.502 377.62 193.502 380.509C193.502 383.399 192.476 385.876 190.418 387.927Z" fill="#7A72FA"/>
<path d="M232 363C227.169 363 223.036 364.705 219.611 368.108C216.201 371.496 214.5 375.586 214.5 380.386V397H221.498V380.386C221.498 377.507 222.524 375.054 224.582 373.016C226.633 370.979 229.111 369.953 232 369.953C234.889 369.953 237.367 370.971 239.418 373.016C241.468 375.054 242.502 377.515 242.502 380.386V397H249.5V380.386C249.5 375.586 247.783 371.496 244.358 368.108C240.948 364.698 236.831 363 232 363Z" fill="#7A72FA"/>
<path d="M210.5 364H203.5V396H210.5V364Z" fill="#7A72FA"/>
</g>
<path opacity="0.8" d="M99.6765 439.424H98.2878V423.797H99.6765V439.424ZM95.0535 425.502C95.0476 427.049 94.7898 428.496 94.28 429.844C93.7761 431.191 92.9793 432.434 91.8894 433.57C90.7996 434.701 89.405 435.674 87.7058 436.488L86.95 435.363C88.4558 434.648 89.7068 433.805 90.7029 432.832C91.7048 431.859 92.449 430.781 92.9353 429.598C93.4275 428.408 93.6765 427.113 93.6824 425.713V425.502H95.0535ZM94.2449 426.627H87.6707V425.502H94.2449V426.627ZM116.784 433.553H102.476V432.41H116.784V433.553ZM114.939 427.98H105.71V430.107H104.339V426.943H113.55V425.326H104.286V424.201H114.939V427.98ZM115.273 430.758H104.339V429.65H115.273V430.758ZM110.298 432.973H108.944V430.213H110.298V432.973ZM115.026 439.283H113.638V435.873H104.075V434.748H115.026V439.283ZM125.349 424.816C126.433 424.816 127.409 424.995 128.276 425.353C129.149 425.71 129.831 426.214 130.324 426.864C130.816 427.515 131.062 428.262 131.062 429.105C131.062 429.955 130.816 430.708 130.324 431.364C129.831 432.015 129.149 432.519 128.276 432.876C127.409 433.228 126.433 433.4 125.349 433.395C124.265 433.4 123.289 433.228 122.422 432.876C121.561 432.519 120.881 432.015 120.383 431.364C119.885 430.708 119.636 429.955 119.636 429.105C119.636 428.262 119.885 427.515 120.383 426.864C120.881 426.214 121.561 425.71 122.422 425.353C123.289 424.995 124.265 424.816 125.349 424.816ZM125.349 425.941C124.517 425.941 123.767 426.073 123.099 426.337C122.431 426.601 121.904 426.976 121.517 427.462C121.136 427.942 120.949 428.49 120.954 429.105C120.949 429.727 121.136 430.277 121.517 430.758C121.904 431.238 122.428 431.61 123.09 431.874C123.758 432.138 124.511 432.27 125.349 432.27C126.181 432.27 126.931 432.138 127.599 431.874C128.267 431.61 128.788 431.238 129.163 430.758C129.538 430.277 129.726 429.727 129.726 429.105C129.726 428.49 129.536 427.942 129.155 427.462C128.774 426.976 128.249 426.601 127.581 426.337C126.919 426.073 126.175 425.941 125.349 425.941ZM132.538 437.35H118.23V436.189H132.538V437.35ZM148.275 437.49H133.967V436.33H148.275V437.49ZM141.754 436.84H140.4V432.973H141.754V436.84ZM146.465 429.686H137.131V432.85H135.759V428.561H145.111V426.1H135.724V424.957H146.465V429.686ZM146.834 433.377H135.759V432.234H146.834V433.377ZM161.854 425.748C161.854 426.598 161.576 427.371 161.019 428.068C160.462 428.76 159.721 429.334 158.795 429.791C157.875 430.242 156.873 430.547 155.789 430.705L155.28 429.615C156.205 429.486 157.078 429.234 157.899 428.859C158.719 428.484 159.378 428.027 159.876 427.488C160.374 426.949 160.623 426.369 160.623 425.748V425.273H161.854V425.748ZM162.416 425.748C162.416 426.369 162.668 426.949 163.172 427.488C163.676 428.027 164.338 428.484 165.159 428.859C165.985 429.234 166.864 429.486 167.795 429.615L167.25 430.705C166.172 430.547 165.17 430.242 164.244 429.791C163.319 429.334 162.577 428.76 162.021 428.068C161.464 427.371 161.186 426.598 161.186 425.748V425.273H162.416V425.748ZM167.373 425.713H155.702V424.588H167.373V425.713ZM168.692 432.99H154.383V431.848H168.692V432.99ZM162.328 436.189H160.957V432.551H162.328V436.189ZM167.092 439.09H156.211V437.93H167.092V439.09ZM157.6 438.369H156.211V434.625H157.6V438.369ZM183.022 439.459H181.633V423.797H183.022V439.459ZM172.423 429.264H177.081V425.133H178.434V435.68H171.051V425.133H172.423V429.264ZM177.081 434.52V430.371H172.423V434.52H177.081ZM197.968 439.424H196.597V423.797H197.968V439.424ZM200.587 431.391H197.651V430.248H200.587V431.391ZM195.085 427.453H185.786V426.311H195.085V427.453ZM190.515 428.754C191.241 428.754 191.895 428.906 192.475 429.211C193.055 429.516 193.509 429.94 193.837 430.485C194.171 431.03 194.341 431.648 194.347 432.34C194.341 433.037 194.171 433.658 193.837 434.203C193.509 434.742 193.055 435.164 192.475 435.469C191.895 435.773 191.241 435.926 190.515 435.926C189.782 435.926 189.123 435.773 188.537 435.469C187.957 435.164 187.503 434.742 187.175 434.203C186.847 433.658 186.683 433.037 186.683 432.34C186.683 431.648 186.847 431.03 187.175 430.485C187.503 429.94 187.957 429.516 188.537 429.211C189.123 428.906 189.782 428.754 190.515 428.754ZM190.515 429.914C190.034 429.914 189.604 430.017 189.223 430.222C188.842 430.427 188.543 430.717 188.326 431.092C188.109 431.461 188.001 431.877 188.001 432.34C188.001 432.809 188.109 433.225 188.326 433.588C188.543 433.951 188.842 434.238 189.223 434.449C189.604 434.654 190.034 434.754 190.515 434.748C190.989 434.754 191.417 434.654 191.798 434.449C192.185 434.238 192.483 433.951 192.694 433.588C192.911 433.225 193.022 432.809 193.028 432.34C193.022 431.877 192.911 431.461 192.694 431.092C192.483 430.717 192.185 430.427 191.798 430.222C191.417 430.017 190.989 429.914 190.515 429.914ZM191.183 426.838H189.812V423.99H191.183V426.838ZM214.249 429.65H203.544V428.543H214.249V429.65ZM215.902 432.902H201.593V431.777H215.902V432.902ZM204.915 429.105H203.544V424.377H204.915V429.105ZM214.337 439.037H203.456V437.895H214.337V439.037ZM204.827 438.229H203.456V434.502H204.827V438.229ZM236.67 431.197H233.787V430.037H236.67V431.197ZM234.139 439.424H232.768V423.797H234.139V439.424ZM224.066 435.012H222.695V425.344H224.066V435.012ZM223.943 434.291C225.18 434.297 226.395 434.244 227.591 434.133C228.786 434.021 230.008 433.834 231.256 433.57L231.432 434.748C230.16 435.006 228.915 435.188 227.696 435.293C226.478 435.398 225.227 435.451 223.943 435.451H222.695V434.291H223.943ZM242.897 424.939C243.705 424.939 244.429 425.095 245.068 425.405C245.706 425.716 246.204 426.149 246.562 426.706C246.919 427.263 247.098 427.898 247.098 428.613C247.098 429.328 246.919 429.964 246.562 430.521C246.204 431.077 245.706 431.511 245.068 431.821C244.429 432.132 243.705 432.287 242.897 432.287C242.082 432.287 241.353 432.132 240.708 431.821C240.07 431.511 239.572 431.077 239.214 430.521C238.857 429.964 238.678 429.328 238.678 428.613C238.678 427.898 238.857 427.263 239.214 426.706C239.572 426.149 240.07 425.716 240.708 425.405C241.353 425.095 242.082 424.939 242.897 424.939ZM242.897 426.152C242.346 426.152 241.854 426.255 241.42 426.46C240.987 426.665 240.647 426.958 240.401 427.339C240.155 427.714 240.032 428.139 240.032 428.613C240.032 429.094 240.155 429.519 240.401 429.888C240.647 430.257 240.987 430.547 241.42 430.758C241.854 430.969 242.346 431.074 242.897 431.074C243.442 431.074 243.931 430.969 244.365 430.758C244.804 430.547 245.144 430.257 245.384 429.888C245.624 429.519 245.744 429.094 245.744 428.613C245.744 428.139 245.624 427.714 245.384 427.339C245.144 426.958 244.804 426.665 244.365 426.46C243.931 426.255 243.442 426.152 242.897 426.152ZM250.596 439.459H249.225V423.797H250.596V439.459ZM237.869 434.836C239.821 434.842 241.646 434.812 243.345 434.748C245.044 434.684 246.658 434.537 248.188 434.309L248.293 435.328C247.192 435.533 246.046 435.686 244.857 435.785C243.667 435.879 242.554 435.94 241.517 435.97C240.486 435.999 239.334 436.014 238.063 436.014L237.869 434.836ZM261.802 424.79C262.505 424.79 263.138 424.963 263.7 425.309C264.263 425.648 264.702 426.126 265.018 426.741C265.341 427.356 265.502 428.051 265.502 428.824C265.502 429.598 265.341 430.289 265.018 430.898C264.702 431.508 264.263 431.985 263.7 432.331C263.138 432.677 262.505 432.847 261.802 432.841C261.099 432.847 260.469 432.677 259.912 432.331C259.355 431.985 258.919 431.508 258.602 430.898C258.292 430.289 258.137 429.598 258.137 428.824C258.137 428.051 258.292 427.356 258.602 426.741C258.919 426.126 259.355 425.648 259.912 425.309C260.469 424.963 261.099 424.79 261.802 424.79ZM261.802 426.697C261.474 426.697 261.184 426.782 260.932 426.952C260.68 427.122 260.483 427.368 260.343 427.69C260.202 428.013 260.135 428.391 260.141 428.824C260.135 429.258 260.202 429.636 260.343 429.958C260.483 430.28 260.68 430.526 260.932 430.696C261.184 430.866 261.474 430.951 261.802 430.951C262.13 430.951 262.42 430.866 262.672 430.696C262.924 430.526 263.117 430.28 263.252 429.958C263.392 429.636 263.463 429.258 263.463 428.824C263.463 428.391 263.392 428.013 263.252 427.69C263.117 427.368 262.921 427.122 262.663 426.952C262.411 426.782 262.124 426.697 261.802 426.697ZM271.804 435.539H269.668V423.639H271.804V435.539ZM270.266 429.932H267.655V428.112H270.266V429.932ZM268.367 435.021H266.275V423.911H268.367V435.021ZM272.208 439.345H260.958V437.534H272.208V439.345ZM263.199 438.492H260.958V433.992H263.199V438.492ZM287.18 433.192H284.939V423.604H287.18V433.192ZM276.097 430.415C277.931 430.415 279.393 430.38 280.483 430.31C281.578 430.233 282.642 430.093 283.673 429.888L283.875 431.698C282.838 431.903 281.769 432.041 280.667 432.111C279.566 432.176 278.042 432.208 276.097 432.208H274.708V430.415H276.097ZM282.364 426.609H276.923V431.426H274.708V424.808H282.364V426.609ZM281.74 433.342C282.859 433.336 283.831 433.459 284.657 433.711C285.484 433.957 286.119 434.317 286.565 434.792C287.01 435.267 287.233 435.832 287.233 436.488C287.233 437.139 287.01 437.698 286.565 438.167C286.119 438.642 285.484 439.005 284.657 439.257C283.831 439.509 282.859 439.638 281.74 439.644C280.609 439.638 279.627 439.509 278.795 439.257C277.969 439.005 277.336 438.645 276.897 438.176C276.457 437.707 276.238 437.145 276.238 436.488C276.238 435.832 276.457 435.267 276.897 434.792C277.336 434.317 277.969 433.957 278.795 433.711C279.627 433.459 280.609 433.336 281.74 433.342ZM281.74 435.091C281.019 435.097 280.418 435.149 279.938 435.249C279.463 435.349 279.103 435.501 278.857 435.706C278.616 435.911 278.496 436.172 278.496 436.488C278.496 436.793 278.616 437.051 278.857 437.262C279.103 437.467 279.466 437.625 279.947 437.736C280.427 437.842 281.025 437.895 281.74 437.895C282.454 437.895 283.055 437.842 283.541 437.736C284.033 437.625 284.403 437.467 284.649 437.262C284.901 437.051 285.027 436.793 285.027 436.488C285.027 436.172 284.901 435.911 284.649 435.706C284.403 435.501 284.036 435.349 283.55 435.249C283.064 435.149 282.46 435.097 281.74 435.091Z" fill="#7A72FA"/>
<defs>
<clipPath id="clip0_1113_3553">
<rect width="200" height="66" fill="white" transform="translate(87.5 349)"/>
</clipPath>
</defs>
</svg>
