<svg width="46" height="46" viewBox="0 0 46 46" fill="none" xmlns="http://www.w3.org/2000/svg">
<path fill-rule="evenodd" clip-rule="evenodd" d="M27 10C27 12.2091 25.2091 14 23 14C20.7909 14 19 12.2091 19 10C19 7.79086 20.7909 6 23 6C25.2091 6 27 7.79086 27 10ZM19 17.25C17.7402 17.25 16.532 17.7504 15.6412 18.6412C14.7504 19.532 14.25 20.7402 14.25 22V24C14.25 24.4142 14.5858 24.75 15 24.75C15.4142 24.75 15.75 24.4142 15.75 24V22C15.75 21.138 16.0924 20.3114 16.7019 19.7019C17.3114 19.0924 18.138 18.75 19 18.75H27C27.862 18.75 28.6886 19.0924 29.2981 19.7019C29.9076 20.3114 30.25 21.138 30.25 22V24C30.25 24.4142 30.5858 24.75 31 24.75C31.4142 24.75 31.75 24.4142 31.75 24V22C31.75 20.7402 31.2496 19.532 30.3588 18.6412C29.468 17.7504 28.2598 17.25 27 17.25H19Z" fill="white"/>
<path d="M13.8159 31.904V38.339H18.3809V31.904H13.8159ZM17.4899 32.641V37.602H14.7069V32.641H17.4899ZM20.1519 30.914V40.858H21.0759V30.914H20.1519ZM20.8559 34.885V35.655H22.7039V34.885H20.8559ZM30.766 30.903V40.869H31.679V30.903H30.766ZM26.432 31.673C24.969 31.673 23.913 33.026 23.913 35.138C23.913 37.261 24.969 38.614 26.432 38.614C27.906 38.614 28.962 37.261 28.962 35.138C28.962 33.026 27.906 31.673 26.432 31.673ZM26.432 32.498C27.411 32.498 28.082 33.532 28.082 35.138C28.082 36.755 27.411 37.811 26.432 37.811C25.464 37.811 24.782 36.755 24.782 35.138C24.782 33.532 25.464 32.498 26.432 32.498Z" fill="white"/>
</svg>
