<svg width="68" height="30" viewBox="0 0 68 30" fill="none" xmlns="http://www.w3.org/2000/svg">
<rect width="68" height="30" rx="6" fill="#E0E1EB"/>
<path d="M12.2136 9.528V11.796C12.2136 14.19 10.6876 16.612 8.81164 17.508L9.52564 18.46C11.5976 17.41 13.1656 14.708 13.1656 11.796V9.528H12.2136ZM12.4096 9.528V11.796C12.4096 14.61 13.9916 17.214 16.0496 18.222L16.7496 17.298C14.8736 16.43 13.3616 14.106 13.3616 11.796V9.528H12.4096ZM18.0656 8.422V21.106H19.2276V8.422H18.0656ZM30.4125 8.436V17.69H31.5745V8.436H30.4125ZM31.2105 12.272V13.238H33.4505V12.272H31.2105ZM26.9545 9.416V9.92C26.9545 12.356 24.9525 14.316 21.7605 15.296L22.2645 16.248C25.8905 15.086 28.1865 12.692 28.1865 9.416H26.9545ZM22.2785 9.416V10.368H27.5425V9.416H22.2785ZM23.6785 19.86V20.812H32.1345V19.86H23.6785ZM23.6785 16.752V20.238H24.8405V16.752H23.6785ZM39.7635 8.758V9.374C39.7635 11.068 37.5515 12.552 35.3115 12.888L35.7735 13.812C38.3355 13.364 40.7575 11.67 40.7575 9.374V8.758H39.7635ZM39.9455 8.758V9.374C39.9455 11.614 42.3815 13.35 44.9435 13.784L45.3775 12.874C43.1795 12.538 40.9395 11.026 40.9395 9.374V8.758H39.9455ZM34.6255 14.876V15.828H46.0915V14.876H34.6255ZM39.8615 15.464V18.376H41.0235V15.464H39.8615ZM36.0815 19.86V20.812H44.8175V19.86H36.0815ZM36.0815 17.158V20.168H37.2295V17.158H36.0815Z" fill="#3E4048"/>
<path d="M56 19L52.5359 13L59.4641 13L56 19Z" fill="#3E4048"/>
</svg>
