<svg width="56" height="30" viewBox="0 0 56 30" fill="none" xmlns="http://www.w3.org/2000/svg">
<rect width="56" height="30" rx="8" fill="#7E73FF"/>
<path d="M17.2973 13.608V15.848H19.4253V13.608H17.2973ZM18.3373 8.2C16.1933 8.2 14.6413 9.432 14.6413 11.224C14.6413 12.984 16.1933 14.216 18.3373 14.216C20.4813 14.216 22.0333 12.984 22.0333 11.224C22.0333 9.432 20.4813 8.2 18.3373 8.2ZM18.3373 9.8C19.3613 9.8 20.0493 10.312 20.0493 11.224C20.0493 12.12 19.3613 12.632 18.3373 12.632C17.3293 12.632 16.6253 12.12 16.6253 11.224C16.6253 10.312 17.3293 9.8 18.3373 9.8ZM23.5533 7.624V18.92H25.6813V7.624H23.5533ZM24.9293 12.264V14.008H27.5373V12.264H24.9293ZM15.7933 20.456V22.168H26.1773V20.456H15.7933ZM15.7933 17.944V21.192H17.9373V17.944H15.7933ZM14.1133 17C16.5613 17 19.9213 16.952 22.9133 16.392L22.7693 14.872C19.8573 15.288 16.3853 15.304 13.8733 15.304L14.1133 17ZM32.048 16.248V19.736H34.128V16.248H32.048ZM36.736 16.232V19.736H38.816V16.232H36.736ZM28.656 19.064V20.792H42.064V19.064H28.656ZM30.16 8.568V10.248H38.448V11.816H30.192V15.992H32.304V13.48H40.56V8.568H30.16ZM30.192 15.096V16.808H40.896V15.096H30.192Z" fill="white"/>
</svg>
