<svg width="87" height="56" viewBox="0 0 87 56" fill="none" xmlns="http://www.w3.org/2000/svg">
<path d="M0 12C0 5.37258 5.37258 0 12 0H87V56H12C5.37258 56 0 50.6274 0 44V12Z" fill="#E0E1EB"/>
<path d="M21.6811 27.68V29.164H33.4131V27.68H21.6811ZM26.7631 28.618V31.348H28.6391V28.618H26.7631ZM23.1231 21.828V26.644H31.9291V21.828H23.1231ZM30.0951 23.284V25.188H24.9431V23.284H30.0951ZM23.0391 32.538V34.022H32.1251V32.538H23.0391ZM23.0391 30.256V33.028H24.8871V30.256H23.0391ZM42.904 21.282V28.226H44.766V21.282H42.904ZM44.248 24.068V25.58H46.488V24.068H44.248ZM35.05 26.434V27.932H36.128C39.012 27.932 40.496 27.862 42.078 27.512L41.896 26.042C40.342 26.364 38.942 26.434 36.128 26.434H35.05ZM35.05 22.052V27.428H36.898V23.536H40.804V22.052H35.05ZM36.296 28.856V34.092H44.766V28.856H42.918V30.032H38.144V28.856H36.296ZM38.144 31.474H42.918V32.608H38.144V31.474Z" fill="#3E4048"/>
<path d="M54 26L58 30L62 26" stroke="#3E4048" stroke-width="2" stroke-linecap="round" stroke-linejoin="round"/>
</svg>
