<svg width="71" height="30" viewBox="0 0 71 30" fill="none" xmlns="http://www.w3.org/2000/svg">
<path d="M19.5659 8.456V9.528C19.5659 11.656 17.7259 14.008 14.3819 14.584L15.2939 16.344C19.1339 15.592 21.4219 12.744 21.4219 9.528V8.456H19.5659ZM19.9979 8.456V9.528C19.9979 12.792 22.2699 15.592 26.1099 16.344L27.0219 14.584C23.6619 14.008 21.8379 11.704 21.8379 9.528V8.456H19.9979ZM14.0779 18.888V20.616H27.4859V18.888H14.0779ZM30.3006 8.904V10.6H39.6286V8.904H30.3006ZM28.7966 18.936V20.68H42.1886V18.936H28.7966ZM38.7326 8.904V10.616C38.7326 12.712 38.7326 14.872 38.0446 17.864L40.1406 18.056C40.8286 14.824 40.8286 12.776 40.8286 10.616V8.904H38.7326ZM39.1806 12.968L29.8686 13.272L30.1246 14.984L39.1806 14.536V12.968ZM54.1074 7.608V15.848H56.1234V7.608H54.1074ZM52.4274 10.888V12.584H54.7794V10.888H52.4274ZM50.9394 7.848V15.768H52.9234V7.848H50.9394ZM46.0754 16.456V22.264H56.1234V16.456H54.0434V17.688H48.1714V16.456H46.0754ZM48.1714 19.304H54.0434V20.568H48.1714V19.304ZM44.0914 13.736V15.416H45.1154C47.3074 15.416 48.7474 15.384 50.4274 15.064L50.2514 13.384C48.6194 13.688 47.2434 13.736 45.1154 13.736H44.0914ZM44.0754 8.36V10.024H47.6434V11.048H44.0914V15.224H46.1554V12.6H49.6914V8.36H44.0754Z" fill="#F2F2F2"/>
<rect x="1" y="1" width="69" height="28" rx="5" stroke="#E0E1EB" stroke-width="2"/>
</svg>
