<svg width="80" height="80" viewBox="0 0 80 80" fill="none" xmlns="http://www.w3.org/2000/svg">
<rect width="80" height="80" rx="40" fill="#74757B"/>
<path d="M56.6667 31.6911C56.6667 38.0004 54.905 56.0861 35.0484 60.1883V64L25.4499 55.2875C31.7861 55.2875 39.8259 53.3562 44.9658 47.3809C43.7551 47.7439 42.4937 47.969 41.1888 48.0343C40.9061 48.0488 40.6233 48.0561 40.3333 48.0561C40.0434 48.0561 39.7679 48.0561 39.4924 48.0343C35.3456 47.8528 31.7643 46.2628 28.7702 43.2787C25.7834 40.2729 24.203 36.6863 24.0217 32.5333C24.0072 32.2574 24 31.9742 24 31.6911C24 31.4079 24.0072 31.1248 24.0217 30.8489C24.1812 27.2114 25.4137 24.0241 27.7263 21.2869C28.0525 20.8876 28.4005 20.51 28.7702 20.147C29.082 19.8275 29.4082 19.5299 29.7344 19.254C29.8069 19.1886 29.8722 19.1233 29.9447 19.0724C32.6923 16.7564 35.8748 15.5148 39.4924 15.3551C39.7679 15.3406 40.0506 15.3333 40.3333 15.3333C40.6161 15.3333 40.8988 15.3333 41.1743 15.3551C44.4874 15.5003 47.438 16.5531 50.0043 18.5134H50.0115C50.6568 19.0071 51.273 19.5444 51.8674 20.147C52.4329 20.7133 52.9476 21.2941 53.4189 21.904C53.4261 21.9113 53.4334 21.9185 53.4334 21.9258C55.427 24.5178 56.4927 27.4945 56.6449 30.8489C56.6594 31.1248 56.6667 31.4079 56.6667 31.6911Z" fill="#FCFCFC"/>
<circle cx="68" cy="68" r="12" fill="#7E73FF"/>
<g clip-path="url(#clip0_547_10973)">
<rect width="12" height="12" transform="translate(62 62)" fill="#7E73FF"/>
<path d="M73.5 71.5C73.5 71.7652 73.3946 72.0196 73.2071 72.2071C73.0196 72.3946 72.7652 72.5 72.5 72.5H63.5C63.2348 72.5 62.9804 72.3946 62.7929 72.2071C62.6054 72.0196 62.5 71.7652 62.5 71.5V66C62.5 65.7348 62.6054 65.4804 62.7929 65.2929C62.9804 65.1054 63.2348 65 63.5 65H65.5L66.5 63.5H69.5L70.5 65H72.5C72.7652 65 73.0196 65.1054 73.2071 65.2929C73.3946 65.4804 73.5 65.7348 73.5 66V71.5Z" stroke="white" stroke-width="1.5" stroke-linecap="round" stroke-linejoin="round"/>
<path d="M68 70.5C69.1046 70.5 70 69.6046 70 68.5C70 67.3954 69.1046 66.5 68 66.5C66.8954 66.5 66 67.3954 66 68.5C66 69.6046 66.8954 70.5 68 70.5Z" stroke="white" stroke-width="1.5" stroke-linecap="round" stroke-linejoin="round"/>
</g>
<defs>
<clipPath id="clip0_547_10973">
<rect width="12" height="12" fill="white" transform="translate(62 62)"/>
</clipPath>
</defs>
</svg>
