<svg width="373" height="86" viewBox="0 0 373 86" fill="none" xmlns="http://www.w3.org/2000/svg">
<g filter="url(#filter0_d_1752_5323)">
<path d="M162.463 44.616V47.016H164.591V44.616H162.463ZM168.943 35.608V50.424H171.071V35.608H168.943ZM159.039 47.96C161.663 47.96 165.103 47.944 168.319 47.352L168.175 45.816C165.055 46.232 161.471 46.232 158.783 46.248L159.039 47.96ZM159.071 37.24V38.904H167.983V37.24H159.071ZM163.519 39.496C161.359 39.496 159.839 40.616 159.839 42.264C159.839 43.928 161.359 45.048 163.519 45.048C165.711 45.048 167.231 43.928 167.231 42.264C167.231 40.616 165.711 39.496 163.519 39.496ZM163.519 41.096C164.511 41.096 165.199 41.512 165.199 42.264C165.199 43.032 164.511 43.448 163.519 43.448C162.559 43.448 161.871 43.032 161.871 42.264C161.871 41.512 162.559 41.096 163.519 41.096ZM162.463 35.672V38.2H164.591V35.672H162.463ZM177.277 43.208V46.456H179.405V43.208H177.277ZM183.773 35.608V46.824H185.901V35.608H183.773ZM175.229 48.472V50.168H186.221V48.472H175.229ZM175.229 45.768V48.92H177.357V45.768H175.229ZM173.629 43.848C176.301 43.848 179.773 43.768 182.925 43.24L182.797 41.72C179.693 42.12 176.077 42.152 173.373 42.152L173.629 43.848ZM180.973 44.216V45.672H184.237V44.216H180.973ZM178.141 36.12C175.965 36.12 174.445 37.192 174.445 38.76C174.445 40.344 175.965 41.4 178.141 41.4C180.301 41.4 181.821 40.344 181.821 38.76C181.821 37.192 180.301 36.12 178.141 36.12ZM178.141 37.672C179.117 37.672 179.805 38.04 179.805 38.76C179.805 39.48 179.117 39.848 178.141 39.848C177.149 39.848 176.461 39.48 176.461 38.76C176.461 38.04 177.149 37.672 178.141 37.672ZM197.612 35.592V50.408H199.756V35.592H197.612ZM199.196 41.256V43H201.804V41.256H199.196ZM193.724 37.128V37.496C193.724 41.512 191.884 44.232 187.996 46.248L189.18 47.864C194.108 45.384 195.804 41.576 195.804 37.128H193.724ZM188.812 37.128V38.84H194.812V37.128H188.812ZM213.035 35.608V43.576H215.179V35.608H213.035ZM205.323 44.216V50.264H215.179V44.216H213.067V45.592H207.419V44.216H205.323ZM207.419 47.224H213.067V48.568H207.419V47.224ZM207.115 36.216C204.811 36.216 203.083 37.672 203.083 39.72C203.083 41.768 204.811 43.224 207.115 43.224C209.419 43.224 211.131 41.768 211.131 39.72C211.131 37.672 209.419 36.216 207.115 36.216ZM207.115 37.976C208.235 37.976 209.051 38.632 209.051 39.72C209.051 40.824 208.235 41.464 207.115 41.464C205.979 41.464 205.163 40.824 205.163 39.72C205.163 38.632 205.979 37.976 207.115 37.976Z" fill="white"/>
<rect x="16" y="16" width="341" height="54" rx="11" stroke="#7E73FF" stroke-width="2" shape-rendering="crispEdges"/>
</g>
<defs>
<filter id="filter0_d_1752_5323" x="0" y="0" width="373" height="86" filterUnits="userSpaceOnUse" color-interpolation-filters="sRGB">
<feFlood flood-opacity="0" result="BackgroundImageFix"/>
<feColorMatrix in="SourceAlpha" type="matrix" values="0 0 0 0 0 0 0 0 0 0 0 0 0 0 0 0 0 0 127 0" result="hardAlpha"/>
<feOffset/>
<feGaussianBlur stdDeviation="7.5"/>
<feComposite in2="hardAlpha" operator="out"/>
<feColorMatrix type="matrix" values="0 0 0 0 0.270588 0 0 0 0 0.207843 0 0 0 0 0.513726 0 0 0 0.35 0"/>
<feBlend mode="normal" in2="BackgroundImageFix" result="effect1_dropShadow_1752_5323"/>
<feBlend mode="normal" in="SourceGraphic" in2="effect1_dropShadow_1752_5323" result="shape"/>
</filter>
</defs>
</svg>
