<svg width="46" height="46" viewBox="0 0 46 46" fill="none" xmlns="http://www.w3.org/2000/svg">
<path d="M30 6H16C14.8954 6 14 6.89543 14 8V22C14 23.1046 14.8954 24 16 24H30C31.1046 24 32 23.1046 32 22V8C32 6.89543 31.1046 6 30 6Z" stroke="#7E73FF" stroke-width="1.5" stroke-linecap="round" stroke-linejoin="round"/>
<path d="M14 18H32" stroke="#7E73FF" stroke-width="1.5" stroke-linecap="round" stroke-linejoin="round"/>
<path d="M14 12H32" stroke="#7E73FF" stroke-width="1.5" stroke-linecap="round" stroke-linejoin="round"/>
<path d="M26 6V24" stroke="#7E73FF" stroke-width="1.5" stroke-linecap="round" stroke-linejoin="round"/>
<path d="M20 6V24" stroke="#7E73FF" stroke-width="1.5" stroke-linecap="round" stroke-linejoin="round"/>
<path d="M20.6689 30.914V40.858H21.5819V30.914H20.6689ZM13.6729 31.981V32.729H19.3049V31.981H13.6729ZM13.5189 38.405C15.3339 38.394 17.7209 38.361 19.8659 38.02L19.8109 37.349C17.6989 37.602 15.2569 37.624 13.4089 37.624L13.5189 38.405ZM14.7729 32.542V37.833H15.6529V32.542H14.7729ZM17.3139 32.542V37.833H18.2049V32.542H17.3139ZM24.683 35.677V36.425H31.514V35.677H24.683ZM23.55 38.757V39.516H32.559V38.757H23.55ZM24.683 31.827V36.007H25.596V32.586H31.415V31.827H24.683Z" fill="#7E73FF"/>
</svg>
