<svg width="71" height="30" viewBox="0 0 71 30" fill="none" xmlns="http://www.w3.org/2000/svg">
<rect width="71" height="30" rx="15" fill="#6298FF"/>
<path d="M14.5099 9V18.824H21.5979V9H14.5099ZM19.5019 10.664V17.144H16.6059V10.664H19.5019ZM23.5339 7.608V22.424H25.6779V7.608H23.5339ZM25.1979 13.192V14.952H27.8219V13.192H25.1979ZM28.7806 15.896V17.592H42.2046V15.896H28.7806ZM34.3806 16.984V22.424H36.4926V16.984H34.3806ZM30.3326 8.328V14.312H40.6046V8.328H30.3326ZM38.5086 10.008V12.632H32.4286V10.008H38.5086ZM53.7074 7.592V22.456H55.8354V7.592H53.7074ZM44.2994 17.272V19H45.6114C48.3154 19 50.4914 18.92 52.8914 18.488L52.6834 16.776C50.3314 17.176 48.2354 17.272 45.6114 17.272H44.2994ZM44.2834 8.856V10.552H49.0994V12.904H44.2994V17.912H46.4594V14.584H51.2754V8.856H44.2834Z" fill="white"/>
</svg>
