<svg width="56" height="30" viewBox="0 0 56 30" fill="none" xmlns="http://www.w3.org/2000/svg">
<rect width="56" height="30" rx="15" fill="#8999A6"/>
<path d="M23.3933 7.592V22.408H25.5373V7.592H23.3933ZM24.9773 13.256V15H27.5853V13.256H24.9773ZM19.5053 9.128V9.496C19.5053 13.512 17.6653 16.232 13.7773 18.248L14.9613 19.864C19.8893 17.384 21.5853 13.576 21.5853 9.128H19.5053ZM14.5933 9.128V10.84H20.5933V9.128H14.5933ZM33.872 8.968V9.336C33.872 10.52 32.448 11.848 29.2 12.168L29.952 13.816C33.76 13.448 35.76 11.592 35.76 9.336V8.968H33.872ZM34.912 8.968V9.336C34.912 11.608 36.928 13.448 40.72 13.816L41.472 12.168C38.224 11.864 36.8 10.536 36.8 9.336V8.968H34.912ZM29.856 8.152V9.832H40.832V8.152H29.856ZM28.64 14.808V16.504H42.048V14.808H28.64ZM34.256 12.904V15.56H36.368V12.904H34.256ZM30.128 17.576V19.256H38.288V22.424H40.416V17.576H30.128Z" fill="white"/>
</svg>
