<svg width="48" height="20" viewBox="0 0 48 20" fill="none" xmlns="http://www.w3.org/2000/svg">
<rect width="48" height="20" rx="10" fill="#6298FF"/>
<path d="M14.2207 12.4707H9.09961V5.42188H14.2207V12.4707ZM10.5703 11.293H12.7383V6.58789H10.5703V11.293ZM17.1738 15.0781H15.6738V4.40234H17.1738V15.0781ZM18.7559 9.68164H16.8457V8.43359H18.7559V9.68164ZM28.875 11.5742H19.125V10.3789H28.875V11.5742ZM24.709 15.0664H23.2266V11.1465H24.709V15.0664ZM27.7148 9.23047H20.2676V4.92969H27.7148V9.23047ZM21.7383 8.05859H26.2207V6.11914H21.7383V8.05859ZM38.4434 15.1074H36.9492V4.40234H38.4434V15.1074ZM31.0312 11.375C32.0352 11.3828 32.9355 11.3613 33.7324 11.3105C34.5332 11.2559 35.3516 11.1602 36.1875 11.0234L36.3223 12.2305C35.498 12.375 34.6758 12.4746 33.8555 12.5293C33.0391 12.5801 32.0977 12.6055 31.0312 12.6055H30.0762V11.375H31.0312ZM35.1328 9.41211H31.6172V11.8438H30.0762V8.24023H33.6094V6.51172H30.0645V5.30469H35.1328V9.41211Z" fill="white"/>
</svg>
