<svg width="56" height="30" viewBox="0 0 56 30" fill="none" xmlns="http://www.w3.org/2000/svg">
<rect width="56" height="30" rx="15" fill="#8878BF"/>
<path d="M24.1293 7.608V22.424H26.2733V7.608H24.1293ZM19.7613 9.144V9.528C19.7613 13.496 18.2253 16.184 13.9693 18.232L15.0733 19.928C20.3373 17.384 21.8733 13.672 21.8733 9.144H19.7613ZM14.7533 9.144V10.824H20.7693V9.144H14.7533ZM35.92 11.192V12.904H39.472V11.192H35.92ZM30.944 17.064V18.728H38.912V22.44H41.04V17.064H30.944ZM38.912 7.608V16.376H41.04V7.608H38.912ZM32.736 8.376C30.512 8.376 28.816 9.912 28.816 12.04C28.816 14.184 30.512 15.72 32.736 15.72C34.944 15.72 36.64 14.184 36.64 12.04C36.64 9.912 34.944 8.376 32.736 8.376ZM32.736 10.184C33.792 10.184 34.608 10.872 34.608 12.04C34.608 13.224 33.792 13.912 32.736 13.912C31.664 13.912 30.848 13.224 30.848 12.04C30.848 10.872 31.664 10.184 32.736 10.184Z" fill="white"/>
</svg>
