<svg width="71" height="30" viewBox="0 0 71 30" fill="none" xmlns="http://www.w3.org/2000/svg">
<g id="CategoryTag">
<rect width="71" height="30" rx="15" fill="#74757B"/>
<path id="&#235;&#167;&#136;&#235;&#172;&#180;&#235;&#166;&#172;" d="M14.7819 9.224V18.584H21.4219V9.224H14.7819ZM20.1259 10.296V17.512H16.0779V10.296H20.1259ZM23.9979 7.784V22.248H25.3419V7.784H23.9979ZM25.0219 13.56V14.68H27.7099V13.56H25.0219ZM28.9246 16.184V17.272H42.0446V16.184H28.9246ZM34.7806 16.84V22.248H36.0926V16.84H34.7806ZM30.5886 8.584V14.232H40.3486V8.584H30.5886ZM39.0526 9.656V13.16H31.9006V9.656H39.0526ZM54.1874 7.768V22.264H55.5154V7.768H54.1874ZM44.4914 17.672V18.776H45.6914C48.1714 18.776 50.3474 18.68 52.9714 18.248L52.8274 17.16C50.2674 17.576 48.1074 17.672 45.6914 17.672H44.4914ZM44.4594 9.128V10.216H49.8034V13.208H44.4914V18.088H45.8194V14.296H51.1474V9.128H44.4594Z" fill="#3E4048"/>
</g>
</svg>
