<svg width="24" height="24" viewBox="0 0 24 24" fill="none" xmlns="http://www.w3.org/2000/svg">
<g clip-path="url(#clip0_811_2600)">
<path d="M12 14.9994C13.6569 14.9994 15 13.6562 15 11.9994C15 10.3425 13.6569 8.99937 12 8.99937C10.3431 8.99937 9 10.3425 9 11.9994C9 13.6562 10.3431 14.9994 12 14.9994Z" stroke="#74757B" stroke-width="2" stroke-linecap="round" stroke-linejoin="round"/>
<path d="M19.4 14.9994C19.2669 15.301 19.2272 15.6356 19.286 15.96C19.3448 16.2844 19.4995 16.5837 19.73 16.8194L19.79 16.8794C19.976 17.0651 20.1235 17.2857 20.2241 17.5285C20.3248 17.7713 20.3766 18.0316 20.3766 18.2944C20.3766 18.5572 20.3248 18.8175 20.2241 19.0603C20.1235 19.3031 19.976 19.5237 19.79 19.7094C19.6043 19.8954 19.3837 20.0429 19.1409 20.1435C18.8981 20.2442 18.6378 20.296 18.375 20.296C18.1122 20.296 17.8519 20.2442 17.6091 20.1435C17.3663 20.0429 17.1457 19.8954 16.96 19.7094L16.9 19.6494C16.6643 19.4189 16.365 19.2642 16.0406 19.2054C15.7162 19.1466 15.3816 19.1863 15.08 19.3194C14.7842 19.4462 14.532 19.6566 14.3543 19.9249C14.1766 20.1932 14.0813 20.5076 14.08 20.8294V20.9994C14.08 21.5298 13.8693 22.0385 13.4942 22.4136C13.1191 22.7887 12.6104 22.9994 12.08 22.9994C11.5496 22.9994 11.0409 22.7887 10.6658 22.4136C10.2907 22.0385 10.08 21.5298 10.08 20.9994V20.9094C10.0723 20.5784 9.96512 20.2574 9.77251 19.9881C9.5799 19.7188 9.31074 19.5137 9 19.3994C8.69838 19.2663 8.36381 19.2266 8.03941 19.2854C7.71502 19.3442 7.41568 19.4989 7.18 19.7294L7.12 19.7894C6.93425 19.9754 6.71368 20.1229 6.47088 20.2235C6.22808 20.3242 5.96783 20.376 5.705 20.376C5.44217 20.376 5.18192 20.3242 4.93912 20.2235C4.69632 20.1229 4.47575 19.9754 4.29 19.7894C4.10405 19.6037 3.95653 19.3831 3.85588 19.1403C3.75523 18.8975 3.70343 18.6372 3.70343 18.3744C3.70343 18.1116 3.75523 17.8513 3.85588 17.6085C3.95653 17.3657 4.10405 17.1451 4.29 16.9594L4.35 16.8994C4.58054 16.6637 4.73519 16.3644 4.794 16.04C4.85282 15.7156 4.81312 15.381 4.68 15.0794C4.55324 14.7836 4.34276 14.5314 4.07447 14.3537C3.80618 14.176 3.49179 14.0807 3.17 14.0794H3C2.46957 14.0794 1.96086 13.8687 1.58579 13.4936C1.21071 13.1185 1 12.6098 1 12.0794C1 11.549 1.21071 11.0403 1.58579 10.6652C1.96086 10.2901 2.46957 10.0794 3 10.0794H3.09C3.42099 10.0717 3.74201 9.96452 4.0113 9.77191C4.28059 9.5793 4.48572 9.31013 4.6 8.9994C4.73312 8.69778 4.77282 8.3632 4.714 8.03881C4.65519 7.71441 4.50054 7.41508 4.27 7.1794L4.21 7.1194C4.02405 6.93365 3.87653 6.71307 3.77588 6.47028C3.67523 6.22748 3.62343 5.96723 3.62343 5.7044C3.62343 5.44157 3.67523 5.18131 3.77588 4.93852C3.87653 4.69572 4.02405 4.47514 4.21 4.2894C4.39575 4.10344 4.61632 3.95593 4.85912 3.85528C5.10192 3.75463 5.36217 3.70282 5.625 3.70282C5.88783 3.70282 6.14809 3.75463 6.39088 3.85528C6.63368 3.95593 6.85425 4.10344 7.04 4.2894L7.1 4.3494C7.33568 4.57993 7.63502 4.73458 7.95941 4.7934C8.28381 4.85222 8.61838 4.81251 8.92 4.6794H9C9.29577 4.55263 9.54802 4.34215 9.72569 4.07386C9.90337 3.80557 9.99872 3.49118 10 3.1694V2.9994C10 2.46896 10.2107 1.96026 10.5858 1.58518C10.9609 1.21011 11.4696 0.999397 12 0.999397C12.5304 0.999397 13.0391 1.21011 13.4142 1.58518C13.7893 1.96026 14 2.46896 14 2.9994V3.0894C14.0013 3.41118 14.0966 3.72557 14.2743 3.99386C14.452 4.26215 14.7042 4.47263 15 4.5994C15.3016 4.73251 15.6362 4.77222 15.9606 4.7134C16.285 4.65458 16.5843 4.49993 16.82 4.2694L16.88 4.2094C17.0657 4.02344 17.2863 3.87593 17.5291 3.77528C17.7719 3.67463 18.0322 3.62282 18.295 3.62282C18.5578 3.62282 18.8181 3.67463 19.0609 3.77528C19.3037 3.87593 19.5243 4.02344 19.71 4.2094C19.896 4.39514 20.0435 4.61572 20.1441 4.85852C20.2448 5.10131 20.2966 5.36157 20.2966 5.6244C20.2966 5.88723 20.2448 6.14748 20.1441 6.39028C20.0435 6.63307 19.896 6.85365 19.71 7.0394L19.65 7.0994C19.4195 7.33508 19.2648 7.63441 19.206 7.95881C19.1472 8.2832 19.1869 8.61778 19.32 8.9194V8.9994C19.4468 9.29517 19.6572 9.54742 19.9255 9.72509C20.1938 9.90277 20.5082 9.99811 20.83 9.9994H21C21.5304 9.9994 22.0391 10.2101 22.4142 10.5852C22.7893 10.9603 23 11.469 23 11.9994C23 12.5298 22.7893 13.0385 22.4142 13.4136C22.0391 13.7887 21.5304 13.9994 21 13.9994H20.91C20.5882 14.0007 20.2738 14.096 20.0055 14.2737C19.7372 14.4514 19.5268 14.7036 19.4 14.9994V14.9994Z" stroke="#74757B" stroke-width="2" stroke-linecap="round" stroke-linejoin="round"/>
</g>
<defs>
<clipPath id="clip0_811_2600">
<rect width="24" height="24" fill="white"/>
</clipPath>
</defs>
</svg>
