<svg width="46" height="46" viewBox="0 0 46 46" fill="none" xmlns="http://www.w3.org/2000/svg">
<path d="M15 22V8C15 7.46957 15.2107 6.96086 15.5858 6.58579C15.9609 6.21071 16.4696 6 17 6H30.4C30.5591 6 30.7117 6.06321 30.8243 6.17574C30.9368 6.28826 31 6.44087 31 6.6V19.714" stroke="#7E73FF" stroke-width="1.5" stroke-linecap="round"/>
<path d="M19 6V14L21.5 12.4L24 14V6" stroke="#7E73FF" stroke-width="1.5" stroke-linecap="round" stroke-linejoin="round"/>
<path d="M17 20H31M17 24H31" stroke="#7E73FF" stroke-width="1.5" stroke-linecap="round"/>
<path d="M17 24C16.4696 24 15.9609 23.7893 15.5858 23.4142C15.2107 23.0391 15 22.5304 15 22C15 21.4696 15.2107 20.9609 15.5858 20.5858C15.9609 20.2107 16.4696 20 17 20" stroke="#7E73FF" stroke-width="1.5" stroke-linecap="round" stroke-linejoin="round"/>
<path d="M10.8243 32.333V33.95C10.8243 35.633 9.62529 37.525 8.20629 38.218L8.73429 38.944C10.2853 38.152 11.5503 36.018 11.5503 33.95V32.333H10.8243ZM10.9893 32.333V33.95C10.9893 35.919 12.1883 37.921 13.7613 38.702L14.2783 37.976C12.8373 37.294 11.7153 35.523 11.7153 33.95V32.333H10.9893ZM8.55829 31.926V32.696H13.9153V31.926H8.55829ZM15.0923 30.914V40.858H16.0163V30.914H15.0923ZM15.7963 34.929V35.699H17.6443V34.929H15.7963ZM23.4514 34.28V35.028H26.2234V34.28H23.4514ZM21.0534 31.772V33.543C21.0534 35.391 19.9314 37.305 18.4684 38.031L19.0514 38.757C20.6244 37.91 21.8014 35.776 21.8014 33.543V31.772H21.0534ZM21.2294 31.772V33.543C21.2294 35.721 22.3844 37.767 23.9904 38.581L24.5294 37.844C23.0884 37.162 21.9664 35.358 21.9664 33.543V31.772H21.2294ZM25.7724 30.903V40.869H26.6744V30.903H25.7724ZM33.8786 33.653V34.401H36.3866V33.653H33.8786ZM35.8696 30.925V38.207H36.7826V30.925H35.8696ZM30.4356 39.89V40.638H37.0576V39.89H30.4356ZM30.4356 37.569V40.275H31.3486V37.569H30.4356ZM31.1396 32.157V32.96C31.1396 34.368 30.1166 35.688 28.6316 36.216L29.1046 36.942C30.7656 36.326 31.8876 34.764 31.8876 32.96V32.157H31.1396ZM31.3156 32.157V32.949C31.3156 34.632 32.3826 36.128 33.9996 36.711L34.4616 35.996C33.0206 35.49 32.0526 34.236 32.0526 32.949V32.157H31.3156ZM28.9176 31.728V32.465H34.2306V31.728H28.9176Z" fill="#7E73FF"/>
</svg>
