<svg width="71" height="30" viewBox="0 0 71 30" fill="none" xmlns="http://www.w3.org/2000/svg">
<rect width="71" height="30" rx="6" fill="#F2F2F2"/>
<path d="M24.3659 7.592V22.456H26.4939V7.592H24.3659ZM21.7739 12.776V14.488H24.8619V12.776H21.7739ZM17.4859 9.944V11.256C17.4859 14.008 16.3179 16.84 13.8379 18.008L15.0859 19.688C17.8539 18.328 19.1659 14.872 19.1659 11.256V9.944H17.4859ZM17.9819 9.944V11.256C17.9819 14.76 19.2619 18.072 22.0459 19.384L23.2779 17.72C20.7979 16.6 19.6459 13.864 19.6459 11.256V9.944H17.9819ZM14.4459 9.032V10.744H22.6859V9.032H14.4459ZM32.0766 9.256V10.184C32.0766 12.072 31.0366 14.008 28.5726 14.824L29.6286 16.504C32.4926 15.56 33.8206 13.016 33.8206 10.184V9.256H32.0766ZM32.5086 9.256V10.184C32.5086 12.824 33.7886 15.144 36.6046 15.992L37.6126 14.328C35.2286 13.608 34.2366 11.912 34.2366 10.184V9.256H32.5086ZM29.1326 8.6V10.296H37.1326V8.6H29.1326ZM38.3166 7.608V16.392H40.4446V7.608H38.3166ZM39.8526 11.016V12.76H42.4126V11.016H39.8526ZM35.6126 16.664C32.5246 16.664 30.5886 17.736 30.5886 19.544C30.5886 21.352 32.5246 22.424 35.6126 22.424C38.6846 22.424 40.6206 21.352 40.6206 19.544C40.6206 17.736 38.6846 16.664 35.6126 16.664ZM35.6126 18.328C37.5006 18.328 38.5086 18.712 38.5086 19.544C38.5086 20.376 37.5006 20.792 35.6126 20.792C33.7246 20.792 32.7006 20.376 32.7006 19.544C32.7006 18.712 33.7246 18.328 35.6126 18.328ZM44.7954 12.136V13.832H52.0594V12.136H44.7954ZM47.3394 13.224V16.056H49.4674V13.224H47.3394ZM44.7954 8.504V12.84H46.9234V10.2H51.9634V8.504H44.7954ZM53.7074 7.592V18.744H55.8514V7.592H53.7074ZM45.8194 20.472V22.168H56.2514V20.472H45.8194ZM45.8194 17.96V21.112H47.9474V17.96H45.8194ZM43.8354 17.08C46.5554 17.08 49.8834 17.016 52.9714 16.568L52.8274 15.048C49.8514 15.368 46.3794 15.4 43.5794 15.4L43.8354 17.08Z" fill="#3E4048"/>
</svg>
