<svg width="56" height="30" viewBox="0 0 56 30" fill="none" xmlns="http://www.w3.org/2000/svg">
<rect width="56" height="30" rx="15" fill="#74757B"/>
<path d="M17.6493 9.848V12.2C17.6493 14.648 15.9053 17.4 13.8413 18.408L14.6093 19.464C16.8653 18.312 18.7053 15.208 18.7053 12.2V9.848H17.6493ZM17.8893 9.848V12.2C17.8893 15.064 19.6333 17.976 21.9213 19.112L22.6733 18.056C20.5773 17.064 18.9453 14.488 18.9453 12.2V9.848H17.8893ZM14.3533 9.256V10.376H22.1453V9.256H14.3533ZM23.8573 7.784V22.248H25.2013V7.784H23.8573ZM24.8813 13.624V14.744H27.5693V13.624H24.8813ZM39.328 7.784V22.248H40.656V7.784H39.328ZM35.088 9.336V9.56C35.088 13.4 33.152 16.472 28.976 18.488L29.68 19.56C34.512 17.192 36.4 13.528 36.4 9.336H35.088ZM29.632 9.336V10.424H35.664V9.336H29.632Z" fill="#3E4048"/>
</svg>
