<svg width="46" height="46" viewBox="0 0 46 46" fill="none" xmlns="http://www.w3.org/2000/svg">
<path fill-rule="evenodd" clip-rule="evenodd" d="M11.25 7C11.25 6.0335 12.0335 5.25 13 5.25H33C33.9665 5.25 34.75 6.0335 34.75 7V10C34.75 10.9665 33.9665 11.75 33 11.75H32V23C32 23.5523 31.5523 24 31 24H15C14.4477 24 14 23.5523 14 23V11.75H13C12.0335 11.75 11.25 10.9665 11.25 10V7ZM13 6.75C12.8619 6.75 12.75 6.86193 12.75 7V10C12.75 10.1381 12.8619 10.25 13 10.25H33C33.1381 10.25 33.25 10.1381 33.25 10V7C33.25 6.86193 33.1381 6.75 33 6.75H13ZM21 14.25C20.5858 14.25 20.25 14.5858 20.25 15C20.25 15.4142 20.5858 15.75 21 15.75H25C25.4142 15.75 25.75 15.4142 25.75 15C25.75 14.5858 25.4142 14.25 25 14.25H21Z" fill="white"/>
<path d="M5.95172 31.673C4.48872 31.673 3.45472 33.026 3.45472 35.138C3.45472 37.261 4.48872 38.614 5.95172 38.614C7.41472 38.614 8.44872 37.261 8.44872 35.138C8.44872 33.026 7.41472 31.673 5.95172 31.673ZM5.95172 32.498C6.90872 32.498 7.57972 33.532 7.57972 35.138C7.57972 36.755 6.90872 37.811 5.95172 37.811C4.98372 37.811 4.32372 36.755 4.32372 35.138C4.32372 33.532 4.98372 32.498 5.95172 32.498ZM10.0327 30.914V40.858H10.9567V30.914H10.0327ZM10.7367 34.885V35.655H12.5847V34.885H10.7367ZM17.6549 31.948V32.047C17.6549 34.753 16.6649 36.975 13.5189 38.526L14.0139 39.23C17.5779 37.459 18.5459 34.819 18.5459 31.948H17.6549ZM14.0579 31.948V32.685H18.1939V31.948H14.0579ZM17.5119 34.412L13.5629 34.676L13.7059 35.49L17.5119 35.116V34.412ZM20.1519 30.903V40.858H21.0759V30.903H20.1519ZM20.8229 34.94V35.699H22.6599V34.94H20.8229ZM30.766 30.903V40.869H31.679V30.903H30.766ZM26.432 31.673C24.969 31.673 23.913 33.026 23.913 35.138C23.913 37.261 24.969 38.614 26.432 38.614C27.906 38.614 28.962 37.261 28.962 35.138C28.962 33.026 27.906 31.673 26.432 31.673ZM26.432 32.498C27.411 32.498 28.082 33.532 28.082 35.138C28.082 36.755 27.411 37.811 26.432 37.811C25.464 37.811 24.782 36.755 24.782 35.138C24.782 33.532 25.464 32.498 26.432 32.498ZM33.6691 38.779V39.549H42.6781V38.779H33.6691ZM34.7251 31.629V36.81H41.6001V31.629H40.6981V33.455H35.6271V31.629H34.7251ZM35.6271 34.192H40.6981V36.062H35.6271V34.192Z" fill="white"/>
</svg>
