<svg width="48" height="48" viewBox="0 0 48 48" fill="none" xmlns="http://www.w3.org/2000/svg">
<rect width="48" height="48" rx="24" fill="white"/>
<path d="M34.2846 19.2245C34.2846 23.0026 33.2215 33.8328 21.238 36.2893V38.5719L15.4453 33.3546C19.2692 33.3546 24.1212 32.1981 27.2232 28.6199C26.4925 28.8373 25.7312 28.9721 24.9437 29.0112C24.7731 29.0199 24.6025 29.0243 24.4275 29.0243C24.2525 29.0243 24.0862 29.0243 23.9199 29.0112C21.4174 28.9025 19.2561 27.9504 17.4491 26.1634C15.6466 24.3635 14.6928 22.2157 14.5834 19.7288C14.5747 19.5636 14.5703 19.394 14.5703 19.2245C14.5703 19.0549 14.5747 18.8853 14.5834 18.7201C14.6797 16.5419 15.4235 14.6333 16.8191 12.9942C17.016 12.755 17.226 12.5289 17.4491 12.3116C17.6373 12.1203 17.8341 11.942 18.031 11.7768C18.0748 11.7377 18.1142 11.6985 18.1579 11.6681C19.8161 10.2812 21.7368 9.53771 23.9199 9.44206C24.0862 9.43336 24.2568 9.42902 24.4275 9.42902C24.5981 9.42902 24.7687 9.42902 24.935 9.44206C26.9344 9.52901 28.7151 10.1594 30.2639 11.3333H30.2682C30.6576 11.629 31.0295 11.9507 31.3883 12.3116C31.7295 12.6507 32.0402 12.9985 32.3246 13.3637C32.3289 13.3681 32.3333 13.3724 32.3333 13.3768C33.5365 14.9289 34.1796 16.7115 34.2715 18.7201C34.2802 18.8853 34.2846 19.0549 34.2846 19.2245Z" fill="#7E73FF"/>
</svg>
