<svg width="46" height="46" viewBox="0 0 46 46" fill="none" xmlns="http://www.w3.org/2000/svg">
<path fill-rule="evenodd" clip-rule="evenodd" d="M20.6934 25.1518H15.239C14.002 25.1518 13 24.0995 13 22.8037V15.5604C13 14.9391 13.2351 14.3402 13.6549 13.9008L21.4915 5.6864C22.3647 4.7712 23.7836 4.7712 24.6569 5.6864L32.4934 13.9008C32.9132 14.3402 33.1483 14.9391 33.1483 15.5604V22.8037C33.1483 24.1023 32.1464 25.1518 30.9093 25.1518H25.7311V20.254C25.7311 19.5599 25.4485 18.9274 24.9923 18.474C24.5389 18.0178 23.9063 17.7351 23.2122 17.7351C21.8213 17.7351 20.6934 18.863 20.6934 20.254V25.1518Z" fill="white"/>
<path d="M19.5794 37.888V40.726H26.3664V37.888H19.5794ZM25.4754 38.592V40.033H20.4814V38.592H25.4754ZM18.9524 31.728V32.443H26.9494V31.728H18.9524ZM22.9784 32.839C20.9214 32.839 19.7664 33.323 19.7664 34.247C19.7664 35.171 20.9214 35.655 22.9784 35.655C25.0244 35.655 26.1904 35.171 26.1904 34.247C26.1904 33.323 25.0244 32.839 22.9784 32.839ZM22.9784 33.477C24.4084 33.477 25.2114 33.752 25.2114 34.247C25.2114 34.742 24.4084 35.017 22.9784 35.017C21.5374 35.017 20.7344 34.742 20.7344 34.247C20.7344 33.752 21.5374 33.477 22.9784 33.477ZM22.5274 30.771V32.19H23.4294V30.771H22.5274ZM18.4794 36.414V37.129H27.4664V36.414H18.4794ZM22.5274 35.435V36.81H23.4294V35.435H22.5274Z" fill="white"/>
</svg>
