<svg width="20" height="16" viewBox="0 0 20 16" fill="none" xmlns="http://www.w3.org/2000/svg">
<path d="M7.49908 13.6493L8.93791 12.2105C9.29193 12.2545 9.64639 12.2772 10 12.2772C12.1249 12.2772 14.2804 11.4579 16.1868 10.1062C16.9347 9.57591 17.5942 8.99375 18.0742 8.4621C18.2291 8.29055 18.3571 8.13271 18.4518 7.99977C18.3571 7.86682 18.2291 7.70899 18.0742 7.53743C17.5942 7.00578 16.9347 6.42362 16.1868 5.89336C16.0035 5.76333 15.8178 5.63824 15.63 5.51832L16.8352 4.31313C18.6938 5.5319 20 6.98088 20 7.99977C20 10.0925 14.4895 13.9998 10 13.9998C9.18692 13.9998 8.34035 13.8716 7.49908 13.6493ZM3.16933 11.6894C1.30831 10.47 0 9.01948 0 7.99977C0 5.907 5.51049 1.99976 10 1.99976C10.815 1.99976 11.6637 2.12853 12.5069 2.35183L11.0688 3.78991C10.7126 3.74531 10.3558 3.72233 10 3.72233C7.87506 3.72233 5.71956 4.54162 3.81317 5.89336C3.06532 6.42362 2.4058 7.00578 1.92582 7.53743C1.77093 7.70899 1.64286 7.86682 1.54819 7.99977C1.64286 8.13271 1.77093 8.29055 1.92582 8.4621C2.4058 8.99375 3.06532 9.57591 3.81317 10.1062C3.99804 10.2373 4.18526 10.3633 4.37457 10.4842L3.16933 11.6894ZM9.66448 11.4839L13.4841 7.66424C13.4946 7.77467 13.5 7.88659 13.5 7.99977C13.5 9.93276 11.933 11.4998 10 11.4998C9.88682 11.4998 9.7749 11.4944 9.66448 11.4839ZM6.51654 8.34218C6.5056 8.22952 6.5 8.1153 6.5 7.99977C6.5 6.06677 8.067 4.49976 10 4.49976C10.1155 4.49976 10.2298 4.50536 10.3424 4.5163L6.51654 8.34218ZM2.50435 14.5101L16.713 0.301353C17.0061 0.00827288 17.4813 0.00827288 17.7744 0.301353C18.0675 0.594434 18.0675 1.06961 17.7744 1.36269L3.56569 15.5714C3.2726 15.8645 2.79743 15.8645 2.50435 15.5714C2.21127 15.2783 2.21127 14.8031 2.50435 14.5101Z" fill="#74757B"/>
</svg>
